<svg width="194" height="63" viewBox="0 0 194 63" fill="none" xmlns="http://www.w3.org/2000/svg">
<path d="M62.2631 31.0239C62.2631 24.8879 60.4436 18.8898 57.0346 13.7879C53.6257 8.68609 48.7804 4.70968 43.1115 2.36155C37.4427 0.0134282 31.2048 -0.600948 25.1868 0.596115C19.1687 1.79318 13.6408 4.74792 9.30202 9.08669C4.96325 13.4255 2.00851 18.9534 0.811447 24.9714C-0.385616 30.9895 0.22876 37.2273 2.57688 42.8962C4.92501 48.5651 8.90142 53.4104 14.0033 56.8193C19.1051 60.2282 25.1033 62.0478 31.2392 62.0478V31.0239H62.2631Z" fill="#006D5A"/>
<path d="M47.7853 33.092C44.9219 33.092 42.1227 33.9411 39.7419 35.532C37.361 37.1228 35.5053 39.3839 34.4096 42.0294C33.3138 44.6749 33.0271 47.5859 33.5857 50.3943C34.1443 53.2027 35.5232 55.7824 37.5479 57.8072C39.5727 59.8319 42.1524 61.2108 44.9608 61.7694C47.7692 62.3281 50.6803 62.0414 53.3257 60.9456C55.9712 59.8498 58.2323 57.9941 59.8232 55.6133C61.414 53.2324 62.2631 50.4333 62.2631 47.5698H47.7853V33.092Z" fill="#002620"/>
<path d="M82.2036 18.4315H101.015V23.1057H88.099V29.058H97.6015V33.3305H88.099V43.9571H82.2036V18.4315ZM105.346 23.7265C104.441 23.7265 103.678 23.4465 103.058 22.8866C102.437 22.3266 102.127 21.6206 102.127 20.7686C102.127 19.9408 102.437 19.247 103.058 18.6871C103.678 18.1028 104.441 17.8107 105.346 17.8107C106.251 17.8107 107.014 18.1028 107.634 18.6871C108.255 19.247 108.565 19.9408 108.565 20.7686C108.565 21.6206 108.255 22.3266 107.634 22.8866C107.014 23.4465 106.251 23.7265 105.346 23.7265ZM102.398 26.4288H108.294V43.9571H102.398V26.4288ZM119.523 44.5049C117.248 44.5049 115.386 43.9693 113.938 42.8981C112.516 41.8026 111.805 40.3175 111.805 38.443C111.805 36.4954 112.49 34.986 113.86 33.9148C115.231 32.8193 117.17 32.2715 119.678 32.2715C120.79 32.2715 121.85 32.3811 122.859 32.6002C123.867 32.8193 124.759 33.1236 125.535 33.5131V33.0749C125.535 31.9794 125.121 31.176 124.294 30.6648C123.466 30.1535 122.199 29.8979 120.493 29.8979C118.217 29.8979 116.123 30.2996 114.21 31.103V27.0861C115.037 26.7452 116.11 26.4653 117.429 26.2462C118.747 26.0027 120.066 25.881 121.385 25.881C124.746 25.881 127.254 26.5383 128.909 27.8529C130.564 29.1432 131.392 30.9569 131.392 33.294V43.9571H125.884V42.3503C124.307 43.7867 122.186 44.5049 119.523 44.5049ZM121.113 40.8531C122.07 40.8531 122.936 40.6827 123.712 40.3419C124.488 40.0011 125.095 39.5263 125.535 38.9177V37.1649C124.216 36.3371 122.768 35.9233 121.191 35.9233C120.105 35.9233 119.265 36.1424 118.67 36.5806C118.101 36.9945 117.817 37.6153 117.817 38.443C117.817 39.222 118.101 39.8185 118.67 40.2323C119.239 40.6462 120.053 40.8531 121.113 40.8531ZM144.75 44.5049C141.389 44.5049 138.713 43.7015 136.722 42.0947C134.731 40.4636 133.735 38.1752 133.735 35.2294C133.735 32.2837 134.731 29.9953 136.722 28.3642C138.739 26.7087 141.428 25.881 144.789 25.881C147.84 25.881 150.271 26.4166 152.081 27.4878V31.8333C151.253 31.2734 150.284 30.8595 149.172 30.5917C148.086 30.3239 146.935 30.1901 145.72 30.1901C143.91 30.1901 142.462 30.6039 141.376 31.4316C140.29 32.2594 139.747 33.5253 139.747 35.2294C139.747 36.9336 140.277 38.1995 141.337 39.0273C142.423 39.8306 143.871 40.2323 145.681 40.2323C148.189 40.2323 150.4 39.6602 152.314 38.516V42.8251C150.4 43.9449 147.879 44.5049 144.75 44.5049ZM163.366 44.5049C161.194 44.5049 159.539 43.9449 158.402 42.8251C157.29 41.6808 156.734 40.0984 156.734 38.0778V30.4092H154.019V26.4288H156.734V21.1703H162.591V26.4288H166.973V30.4092H162.591V37.3475C162.591 38.3699 162.797 39.1125 163.211 39.575C163.625 40.0132 164.362 40.2323 165.422 40.2323C166.275 40.2323 167.09 40.0376 167.865 39.6481V43.7745C166.676 44.2614 165.176 44.5049 163.366 44.5049ZM180.813 44.5049C178.564 44.5049 176.586 44.1275 174.879 43.3728C173.198 42.5938 171.893 41.5104 170.962 40.1228C170.057 38.7108 169.604 37.0675 169.604 35.1929C169.604 33.3671 170.057 31.7481 170.962 30.3361C171.893 28.9241 173.198 27.8286 174.879 27.0496C176.586 26.2705 178.564 25.881 180.813 25.881C183.037 25.881 184.989 26.2705 186.67 27.0496C188.377 27.8286 189.682 28.9241 190.587 30.3361C191.518 31.7481 191.984 33.3671 191.984 35.1929C191.984 37.0675 191.518 38.7108 190.587 40.1228C189.682 41.5104 188.389 42.5938 186.709 43.3728C185.028 44.1275 183.063 44.5049 180.813 44.5049ZM180.813 40.1958C182.391 40.1958 183.645 39.7454 184.576 38.8447C185.506 37.9196 185.972 36.7023 185.972 35.1929C185.972 33.6349 185.506 32.4176 184.576 31.5412C183.671 30.6404 182.416 30.1901 180.813 30.1901C179.21 30.1901 177.943 30.6404 177.012 31.5412C176.081 32.4176 175.616 33.6349 175.616 35.1929C175.616 36.7023 176.081 37.9196 177.012 38.8447C177.969 39.7454 179.236 40.1958 180.813 40.1958Z" fill="#010101"/>
</svg>
