<svg width="22" height="28" viewBox="0 0 22 28" fill="none" xmlns="http://www.w3.org/2000/svg">
<path d="M4.97281 3.19585C5.70729 3.39616 6.44177 3.5297 7.17625 3.73002C7.91073 3.93033 8.64522 4.06387 9.3797 4.26418C9.58001 4.33095 9.64678 4.26418 9.71355 4.06387C9.98063 2.92876 10.2477 1.86043 10.5148 0.725322C10.5816 0.525009 10.6483 0.458238 10.8487 0.525009C11.5164 0.725322 12.1173 0.858863 12.785 0.992405C12.9853 1.05918 12.9853 1.12595 12.9186 1.25949C12.6515 2.32783 12.3844 3.46293 12.1173 4.53127C12.1173 4.59804 12.1173 4.66481 12.0505 4.79835C12.5847 4.93189 13.1856 5.06544 13.7198 5.19898C13.7866 5.19898 13.8534 5.06544 13.9201 4.99866C14.1204 4.13064 14.3207 3.32939 14.5878 2.46137C14.6546 2.19428 14.7214 1.9272 14.7881 1.66011C14.7881 1.52657 14.8549 1.4598 14.9885 1.52657C15.6562 1.72689 16.3239 1.86043 17.0584 2.06074C17.1251 2.06074 17.1251 2.12751 17.1919 2.12751C16.9916 2.99554 16.7913 3.79679 16.591 4.59804C16.5242 4.93189 16.4574 5.26575 16.3239 5.5996C16.2571 5.79992 16.3239 5.86669 16.5242 5.93346C17.2587 6.26731 17.9932 6.60117 18.7276 6.93502C19.3953 7.33565 19.9963 7.86982 20.4637 8.53753C21.0646 9.53909 21.1314 10.6074 20.8643 11.6758C20.664 12.4102 20.3969 13.078 19.8627 13.6121C19.4621 14.0127 18.9279 14.2798 18.3938 14.4801C18.327 14.4801 18.2602 14.5469 18.1267 14.5469C18.3938 14.7472 18.6609 14.8808 18.9279 15.0811C19.7292 15.682 20.2634 16.4165 20.5305 17.3513C20.664 18.0858 20.5972 18.887 20.3969 19.6215C20.1298 20.5563 19.796 21.3576 19.195 22.092C18.4606 22.9601 17.5258 23.4275 16.4574 23.561C15.0552 23.7613 13.7198 23.6278 12.3844 23.4275C12.1841 23.3607 12.0505 23.4275 11.9838 23.6278C11.7167 24.6961 11.4496 25.8312 11.1825 26.8996C11.1157 27.1666 11.1157 27.2334 10.7819 27.0999C10.1809 26.9663 9.51324 26.766 8.9123 26.6325C8.71199 26.5657 8.71198 26.4989 8.77876 26.3654C9.04584 25.2303 9.31292 24.0952 9.64678 23.0268C9.64678 22.8933 9.71355 22.8265 9.58001 22.7598C9.04584 22.6262 8.51167 22.4927 7.91073 22.3591C7.77719 22.9601 7.57688 23.561 7.44334 24.1619C7.30979 24.7629 7.10948 25.3638 6.97594 25.9648C6.90917 26.0983 6.90917 26.1651 6.70886 26.0983C6.04115 25.898 5.37344 25.7644 4.70573 25.6309C4.50541 25.5641 4.50541 25.4974 4.57218 25.3638C4.83927 24.2287 5.10635 23.0936 5.44021 22.0253C5.44021 21.9585 5.50698 21.8917 5.50698 21.7582C3.97124 21.3576 2.43551 20.9569 0.833008 20.5563C0.96655 20.2892 1.03332 20.0889 1.16686 19.8218C1.43395 19.2209 1.70103 18.6199 1.90134 18.0858C1.96811 17.8855 2.03489 17.8855 2.2352 17.8855C2.7026 18.019 3.23676 18.1525 3.70416 18.2193C4.23833 18.3529 4.63895 18.0858 4.70573 17.6184C5.57375 14.2131 6.44177 10.8077 7.24302 7.33565C7.37657 6.80148 7.04271 6.20054 6.44177 6.00023C5.84083 5.79992 5.23989 5.66638 4.70573 5.53283C4.57218 5.53283 4.50541 5.46606 4.57218 5.33252C4.7725 4.59804 4.97281 3.79679 5.17312 3.06231C4.90604 3.26262 4.90604 3.26262 4.97281 3.19585ZM8.37813 19.6883C8.4449 19.6883 8.51167 19.7551 8.51167 19.7551C9.58001 20.0221 10.7151 20.356 11.8502 20.4228C12.6515 20.4895 13.386 20.4895 14.1204 20.2225C15.3891 19.8218 15.9233 18.1525 15.1888 17.0842C14.8549 16.55 14.3207 16.2162 13.7866 15.8823C12.5847 15.2146 11.1825 14.9475 9.84709 14.6805C9.64678 14.6137 9.64678 14.6805 9.58001 14.8808C9.44647 15.5485 9.24615 16.1494 9.11261 16.8171C8.84553 17.7519 8.64522 18.6867 8.37813 19.6883ZM13.9869 12.8776C14.1204 12.8776 14.4543 12.8109 14.7214 12.7441C15.99 12.477 16.6577 11.0081 15.99 9.87295C15.6562 9.27201 15.0552 8.87138 14.4543 8.6043C13.5195 8.20367 12.5847 8.00336 11.5831 7.73628C11.3828 7.6695 11.3161 7.73627 11.2493 7.93659C10.9154 9.33878 10.5816 10.6742 10.1809 12.0764C10.1142 12.2099 10.1809 12.2767 10.3145 12.3435C10.5816 12.4102 10.7819 12.477 11.049 12.5438C12.0505 12.6773 12.9186 12.8776 13.9869 12.8776Z" fill="white"/>
</svg>
