<svg width="25" height="24" viewBox="0 0 25 24" fill="none" xmlns="http://www.w3.org/2000/svg">
<path d="M10 3H6C5.30222 3 4.95333 3 4.66943 3.08612C4.03023 3.28002 3.53002 3.78023 3.33612 4.41943C3.25 4.70333 3.25 5.05222 3.25 5.75C3.25 6.44778 3.25 6.79667 3.33612 7.08057C3.53002 7.71977 4.03023 8.21998 4.66943 8.41388C4.95333 8.5 5.30222 8.5 6 8.5H10C10.6978 8.5 11.0467 8.5 11.3306 8.41388C11.9698 8.21998 12.47 7.71977 12.6639 7.08057C12.75 6.79667 12.75 6.44778 12.75 5.75C12.75 5.05222 12.75 4.70333 12.6639 4.41943C12.47 3.78023 11.9698 3.28002 11.3306 3.08612C11.0467 3 10.6978 3 10 3Z" stroke="#8B8B8B" stroke-width="1.5" stroke-linejoin="round"/>
<path d="M21.25 9.75V5.75C21.25 5.05222 21.25 4.70333 21.1639 4.41943C20.97 3.78023 20.4698 3.28002 19.8306 3.08612C19.5467 3 19.1978 3 18.5 3C17.8022 3 17.4533 3 17.1694 3.08612C16.5302 3.28002 16.03 3.78023 15.8361 4.41943C15.75 4.70333 15.75 5.05222 15.75 5.75V9.75C15.75 10.4478 15.75 10.7967 15.8361 11.0806C16.03 11.7198 16.5302 12.22 17.1694 12.4139C17.4533 12.5 17.8022 12.5 18.5 12.5C19.1978 12.5 19.5467 12.5 19.8306 12.4139C20.4698 12.22 20.97 11.7198 21.1639 11.0806C21.25 10.7967 21.25 10.4478 21.25 9.75Z" stroke="#8B8B8B" stroke-width="1.5" stroke-linejoin="round"/>
<path d="M17.1694 20.9139C17.4533 21 17.8022 21 18.5 21C19.1978 21 19.5467 21 19.8306 20.9139C20.4698 20.72 20.97 20.2198 21.1639 19.5806C21.25 19.2967 21.25 18.9478 21.25 18.25C21.25 17.5522 21.25 17.2033 21.1639 16.9194C20.97 16.2802 20.4698 15.78 19.8306 15.5861C19.5467 15.5 19.1978 15.5 18.5 15.5C17.8022 15.5 17.4533 15.5 17.1694 15.5861C16.5302 15.78 16.03 16.2802 15.8361 16.9194C15.75 17.2033 15.75 17.5522 15.75 18.25C15.75 18.9478 15.75 19.2967 15.8361 19.5806C16.03 20.2198 16.5302 20.72 17.1694 20.9139Z" stroke="#8B8B8B" stroke-width="1.5" stroke-linejoin="round"/>
<path d="M8.75 11.5H7.25C5.36438 11.5 4.42157 11.5 3.83579 12.0858C3.25 12.6716 3.25 13.6144 3.25 15.5V17C3.25 18.8856 3.25 19.8284 3.83579 20.4142C4.42157 21 5.36438 21 7.25 21H8.75C10.6356 21 11.5784 21 12.1642 20.4142C12.75 19.8284 12.75 18.8856 12.75 17V15.5C12.75 13.6144 12.75 12.6716 12.1642 12.0858C11.5784 11.5 10.6356 11.5 8.75 11.5Z" stroke="#8B8B8B" stroke-width="1.5" stroke-linejoin="round"/>
</svg>
