<svg width="285" height="226" viewBox="0 0 285 226" fill="none" xmlns="http://www.w3.org/2000/svg">
<path d="M112.95 83.5187C122.967 73.5019 122.967 57.2615 112.95 47.2447C102.934 37.2279 86.6931 37.2279 76.6763 47.2447C66.6595 57.2615 66.6595 73.5019 76.6763 83.5187C86.6931 93.5355 102.934 93.5355 112.95 83.5187Z" stroke="#006D5A" stroke-width="0.607" stroke-miterlimit="10" stroke-linecap="round" stroke-linejoin="round" stroke-dasharray="6.22 3.11"/>
<path d="M130.513 112.839C130.513 112.839 117.209 111.197 110.415 95.0334" stroke="#006D5A" stroke-width="0.607" stroke-miterlimit="10" stroke-linecap="round" stroke-linejoin="round" stroke-dasharray="6.22 3.11"/>
<path d="M88.1682 62.5047H83.2928V75.9087H88.1682V62.5047Z" fill="#E8E8E8" stroke="#E8E8E8" stroke-width="0.1554" stroke-miterlimit="10"/>
<path d="M95.942 59.2166H91.0667V75.9087H95.942V59.2166Z" fill="#E8E8E8" stroke="#E8E8E8" stroke-width="0.1554" stroke-miterlimit="10"/>
<path d="M105.165 52.3241H100.29V75.9087H105.165V52.3241Z" fill="#006D5A" stroke="#006D5A" stroke-width="0.607" stroke-miterlimit="10"/>
<path d="M80.2776 75.9094H108.635" stroke="#006D5A" stroke-width="0.607" stroke-miterlimit="10" stroke-linecap="round" stroke-linejoin="round"/>
<path d="M107.023 211.668H209.319" stroke="#006D5A" stroke-width="0.607" stroke-miterlimit="10" stroke-linecap="round" stroke-linejoin="round"/>
<path d="M277.894 135.208C272.586 137.144 264.854 136.829 263.941 144.866C263.311 150.41 266.971 155.585 260.906 159.19C258.501 160.618 255.844 161.002 254.376 163.633C253.1 165.92 253.359 168.775 253.6 171.275C253.807 173.425 254.778 176.095 254.465 178.257C253.955 181.787 251.037 182.346 248.43 184.121C245.949 185.81 243.816 188.186 243.335 191.281C242.698 195.375 245.655 198.287 246.098 202.033C246.098 202.033 250.544 216.318 264.124 207.934C267.333 205.953 270.802 204.576 272.71 200.897C274.151 198.117 273.836 194.94 272.835 192.11C271.782 189.137 269.76 186.961 271.435 183.812C272.461 181.883 274.823 180.305 276.262 178.693C277.935 176.819 279.833 174.67 280.156 172.071C280.527 169.081 278.611 167.2 277.518 164.626C274.758 158.133 280.77 156.123 283.54 151.28C287.557 144.259 281.136 139.942 278.001 135.241L277.894 135.208Z" fill="#002620"/>
<path d="M273.745 148.06L252.222 213.803" stroke="#006D5A" stroke-width="0.607" stroke-miterlimit="10" stroke-linecap="round" stroke-linejoin="round"/>
<path d="M261.064 165.022L264.804 175.369" stroke="#006D5A" stroke-width="0.607" stroke-miterlimit="10" stroke-linecap="round" stroke-linejoin="round"/>
<path d="M257.119 198.844L266.455 195.583" stroke="#006D5A" stroke-width="0.607" stroke-miterlimit="10" stroke-linecap="round" stroke-linejoin="round"/>
<path d="M267.502 167.129L274.334 162.808" stroke="#006D5A" stroke-width="0.607" stroke-miterlimit="10" stroke-linecap="round" stroke-linejoin="round"/>
<path d="M38.6848 173.186C38.6848 173.186 2.39512 150.729 4.65986 101.837C45.53 120.015 48.4162 172.982 48.4162 172.982L38.6848 173.186Z" fill="white" stroke="#006D5A" stroke-width="0.607" stroke-miterlimit="10" stroke-linecap="round" stroke-linejoin="round"/>
<path d="M6.8772 126.227L23.9884 136.68" stroke="#006D5A" stroke-width="0.607" stroke-miterlimit="10" stroke-linecap="round" stroke-linejoin="round"/>
<path d="M29.1866 146.052L32.489 125.754" stroke="#006D5A" stroke-width="0.607" stroke-miterlimit="10" stroke-linecap="round" stroke-linejoin="round"/>
<path d="M36.6225 132.634L33.1069 153.118" stroke="#006D5A" stroke-width="0.607" stroke-miterlimit="10" stroke-linecap="round" stroke-linejoin="round"/>
<path d="M4.65979 101.837L44.3602 173.405" stroke="#006D5A" stroke-width="0.607" stroke-miterlimit="10" stroke-linecap="round" stroke-linejoin="round"/>
<path d="M262.934 211.668H274.722" stroke="#006D5A" stroke-width="0.607" stroke-miterlimit="10" stroke-linecap="round" stroke-linejoin="round"/>
<path d="M1.17737 211.668H15.4332" stroke="#006D5A" stroke-width="0.607" stroke-miterlimit="10" stroke-linecap="round" stroke-linejoin="round"/>
<path d="M244.648 46.3666C247.946 44.1012 253.36 42.4492 257.096 43.3534C260.827 44.2562 266.05 48.706 266.519 52.5652C263.779 54.1145 260.322 54.9376 258.061 57.4298C254.516 61.3372 252.84 65.9915 248.582 69.3484C238.581 77.2334 222.855 79.7881 214.802 67.9032C212.253 64.143 212.169 58.7531 216.964 56.8479C216.101 57.1909 216.796 53.0137 216.915 52.5954C217.537 50.4067 218.832 48.4728 220.411 46.8345C225.795 41.2487 232.696 40.1945 238.663 45.1481C240.224 46.4434 242.772 48.1742 244.648 46.3666Z" fill="#006D5A" stroke="#006D5A" stroke-width="0.607" stroke-miterlimit="10"/>
<path d="M181.047 117.889L175.39 120.628L172.004 122.218L173.11 124.467L169.724 126.545L174.802 134.416L187.698 126.699L181.047 117.889Z" fill="white" stroke="#006D5A" stroke-width="0.607" stroke-miterlimit="10" stroke-linecap="round" stroke-linejoin="round"/>
<path d="M170.808 128.101L175.01 125.733" stroke="#006D5A" stroke-width="0.607" stroke-miterlimit="10" stroke-linecap="round" stroke-linejoin="round"/>
<path d="M172.303 130.138L176.505 127.77" stroke="#006D5A" stroke-width="0.607" stroke-miterlimit="10" stroke-linecap="round" stroke-linejoin="round"/>
<path d="M173.633 132.267L177.834 129.899" stroke="#006D5A" stroke-width="0.607" stroke-miterlimit="10" stroke-linecap="round" stroke-linejoin="round"/>
<path d="M171.479 125.401L174.59 123.62" stroke="#006D5A" stroke-width="0.607" stroke-miterlimit="10" stroke-linecap="round" stroke-linejoin="round"/>
<path d="M203.757 98.6286C199.861 110.283 179.408 115.808 179.408 115.808L181.047 117.889L187.948 128.485C187.948 128.485 205.192 124.771 213.637 114.114L203.757 98.6286Z" fill="#006D5A" stroke="#006D5A" stroke-width="0.607" stroke-miterlimit="10"/>
<path d="M238.674 222.885L246.898 214.423H253.847V222.885H238.674Z" fill="#006D5A" stroke="#006D5A" stroke-width="0.607" stroke-miterlimit="10"/>
<path d="M214.974 222.885L222.971 214.423H229.918V222.885H214.974Z" fill="#006D5A" stroke="#006D5A" stroke-width="0.607" stroke-miterlimit="10"/>
<path d="M213.58 140.74V216.665H234.891V156.098H237.667L238.456 216.665H259.772L258.984 156.098L258.881 140.74H213.58Z" fill="white" stroke="#006D5A" stroke-width="0.607" stroke-miterlimit="10" stroke-linecap="round" stroke-linejoin="round"/>
<path d="M262.128 140.895H211.351V109.629L262.128 117.503V140.895Z" fill="#006D5A" stroke="#006D5A" stroke-width="0.607" stroke-miterlimit="10"/>
<path d="M203.424 103.216C203.424 85.6623 216.868 77.8333 234.417 77.4143C234.776 77.4056 235.139 77.4013 235.506 77.4013C249.146 77.4013 263.467 84.3972 266.232 98.7779C267.617 105.981 268.154 114.228 265.226 121.144C262.019 128.719 255.086 133.662 247.718 136.782C240.12 140 243.835 136.503 239.778 134.415C232.706 130.777 230.159 129.866 230.159 129.866L203.424 103.216Z" fill="#006D5A" stroke="#006D5A" stroke-width="0.607" stroke-miterlimit="10"/>
<path d="M231.443 82.1547C228.785 82.1547 226.631 80.0005 226.631 77.3425V61.7032H236.256V77.3425C236.255 79.9998 234.101 82.1547 231.443 82.1547Z" fill="white" stroke="#006D5A" stroke-width="0.607" stroke-miterlimit="10" stroke-linecap="round" stroke-linejoin="round"/>
<path d="M239.796 62.964C239.816 64.4393 238.634 65.6528 237.159 65.6729C236.931 65.6758 236.706 65.6506 236.495 65.5961C236.325 66.5677 235.957 67.4719 235.435 68.2663C234.179 70.1744 232.029 71.4453 229.573 71.4783C225.634 71.5314 222.402 68.384 222.349 64.4451C222.295 60.5069 225.443 57.2741 229.382 57.221C232.051 57.1851 234.398 58.6189 235.643 60.7767C236.056 60.4969 236.553 60.3332 237.088 60.3261C238.563 60.3067 239.776 61.4879 239.796 62.964Z" fill="white" stroke="#006D5A" stroke-width="0.607" stroke-miterlimit="10" stroke-linecap="round" stroke-linejoin="round"/>
<path d="M218.181 175.558C214.914 171.326 210.472 168.38 204.86 166.724C209.553 164.608 213.073 161.478 215.42 157.337C217.767 153.196 218.941 148.778 218.941 144.085C218.941 140.958 218.41 137.897 217.353 134.905C216.294 131.916 214.8 129.246 212.867 126.899C210.935 124.553 208.588 122.644 205.827 121.171C203.066 119.7 199.982 118.962 196.577 118.962H189.809V109.224H171.877V118.962H163.477V109.224H145.545V118.962H142.052H126.375V131.148L142.052 134.819V201.114L126.375 204.785V216.971H142.052H145.545V225H163.477V216.971H171.877V224.663H189.809V216.971H189.813C194.321 216.971 198.6 216.442 202.651 215.383C206.699 214.326 210.243 212.761 213.28 210.69C216.317 208.62 218.709 206.021 220.458 202.891C222.206 199.763 223.081 196.081 223.081 191.848C223.081 185.221 221.447 179.792 218.181 175.558ZM164.69 138.287H187.742C190.135 138.287 192.181 139.163 193.886 140.91C195.587 142.66 196.439 145.144 196.439 148.365C196.439 151.863 195.473 154.438 193.54 156.095C191.607 157.751 189.399 158.58 186.914 158.58H164.69L164.69 138.287ZM197.129 194.884C195.197 196.816 192.758 197.782 189.813 197.782H164.69V176.386H190.779C193.447 176.386 195.656 177.445 197.405 179.561C199.152 181.679 200.028 184.254 200.028 187.291C200.028 190.421 199.063 192.951 197.129 194.884Z" fill="#E8E8E8" stroke="#006D5A" stroke-width="0.607" stroke-miterlimit="10" stroke-linecap="round" stroke-linejoin="round"/>
<path d="M235.747 64.0497C235.747 64.0497 235.814 62.6985 237.144 62.8628" stroke="#006D5A" stroke-width="0.607" stroke-miterlimit="10" stroke-linecap="round" stroke-linejoin="round"/>
<path d="M226.633 133.432L220.975 136.172L217.59 137.761L218.696 140.011L215.31 142.088L220.387 149.959L233.283 142.242L226.633 133.432Z" fill="white" stroke="#006D5A" stroke-width="0.607" stroke-miterlimit="10" stroke-linecap="round" stroke-linejoin="round"/>
<path d="M216.394 143.644L220.596 141.276" stroke="#006D5A" stroke-width="0.607" stroke-miterlimit="10" stroke-linecap="round" stroke-linejoin="round"/>
<path d="M217.889 145.682L222.09 143.314" stroke="#006D5A" stroke-width="0.607" stroke-miterlimit="10" stroke-linecap="round" stroke-linejoin="round"/>
<path d="M219.219 147.81L223.42 145.443" stroke="#006D5A" stroke-width="0.607" stroke-miterlimit="10" stroke-linecap="round" stroke-linejoin="round"/>
<path d="M217.065 140.944L220.176 139.164" stroke="#006D5A" stroke-width="0.607" stroke-miterlimit="10" stroke-linecap="round" stroke-linejoin="round"/>
<path d="M249.315 109.629C250.9 125.297 224.994 131.351 224.994 131.351L226.633 133.432L233.534 144.028C233.534 144.028 250.777 140.314 259.222 129.657" fill="#006D5A"/>
<path d="M249.315 109.629C250.9 125.297 224.994 131.351 224.994 131.351L226.633 133.432L233.534 144.028C233.534 144.028 250.777 140.314 259.222 129.657" stroke="#006D5A" stroke-width="0.607" stroke-miterlimit="10"/>
<path d="M249.315 109.629C250.9 125.297 224.994 131.351 224.994 131.351" stroke="white" stroke-width="0.6076" stroke-miterlimit="10" stroke-linecap="round" stroke-linejoin="round"/>
<path d="M233.534 144.028C233.534 144.028 250.777 140.314 259.222 129.657" stroke="white" stroke-width="0.6076" stroke-miterlimit="10" stroke-linecap="round" stroke-linejoin="round"/>
<path d="M56.9593 114.772C52.625 114.772 48.7392 114.449 46.801 109.834C45.7748 107.39 45.9772 104.464 47.3305 102.184C48.3137 100.528 49.8457 99.3635 50.9803 97.8371C51.6713 96.9078 52.747 93.482 53.7208 93.0178C53.8679 92.9474 54.0372 92.9489 54.1994 92.9539C58.6026 93.0787 66.3153 94.8383 68.4789 99.3111C69.8079 102.059 68.7243 106.935 67.1255 109.36C64.9899 112.599 61.2369 113.4 56.9593 114.772Z" fill="#006D5A" stroke="#006D5A" stroke-width="0.607" stroke-miterlimit="10"/>
<path d="M83.5943 184.413H37.4032V197.075H83.5943V184.413Z" fill="white" stroke="#006D5A" stroke-width="0.607" stroke-miterlimit="10" stroke-linecap="round" stroke-linejoin="round"/>
<path d="M72.4271 211.668H28.279C23.0706 211.668 18.8483 207.445 18.8483 202.237C18.8483 197.029 23.0706 192.806 28.279 192.806L72.4271 197.262V211.668Z" fill="white" stroke="#006D5A" stroke-width="0.607" stroke-miterlimit="10" stroke-linecap="round" stroke-linejoin="round"/>
<path d="M37.4757 213.927L45.9369 207.942V200.994H37.4757V213.927Z" fill="#006D5A" stroke="white" stroke-width="0.607" stroke-miterlimit="10"/>
<path d="M45.637 211.668H89.7851C94.9934 211.668 99.2158 207.445 99.2158 202.237C99.2158 197.029 94.9934 192.806 89.7851 192.806L45.637 197.262V211.668Z" fill="white" stroke="#006D5A" stroke-width="0.607" stroke-miterlimit="10" stroke-linecap="round" stroke-linejoin="round"/>
<path d="M32.6872 188.912H85.3762V162.846H32.6872V188.912Z" fill="#E8E8E8"/>
<path d="M91.8375 155.344C91.8375 137.79 77.9477 123.176 60.3988 122.757C60.04 122.749 59.6769 122.744 59.3102 122.744C32.9097 122.744 24.5812 141.934 23.3305 145.246C20.5455 152.619 16.5355 173.54 39.1485 174.431C61.7615 175.322 64.6577 175.211 64.6577 175.211L87.542 193.032H91.8375V172.537V155.344Z" fill="#E8E8E8"/>
<path d="M58.0264 127.497C60.6844 127.497 62.8387 125.343 62.8387 122.685V107.045H53.2135V122.685C53.2135 125.343 55.3685 127.497 58.0264 127.497Z" fill="white" stroke="#006D5A" stroke-width="0.607" stroke-miterlimit="10" stroke-linecap="round" stroke-linejoin="round"/>
<path d="M49.5895 110.023C49.8371 111.477 51.2185 112.458 52.673 112.21C52.8976 112.172 53.1144 112.106 53.3124 112.014C53.6554 112.939 54.1807 113.762 54.8388 114.449C56.4189 116.098 58.7633 116.96 61.1845 116.548C65.0674 115.888 67.678 112.208 67.0179 108.324C66.3577 104.441 62.6778 101.831 58.7942 102.491C56.162 102.939 54.1133 104.773 53.2794 107.12C52.8223 106.919 52.3042 106.848 51.7768 106.938C50.3222 107.187 49.3419 108.568 49.5895 110.023Z" fill="white" stroke="#006D5A" stroke-width="0.607" stroke-miterlimit="10" stroke-linecap="round" stroke-linejoin="round"/>
<path d="M53.7681 110.359C53.7681 110.359 53.4581 109.042 52.1793 109.444" stroke="#006D5A" stroke-width="0.607" stroke-miterlimit="10" stroke-linecap="round" stroke-linejoin="round"/>
<path d="M128.982 175.912L128.895 163.577L125.056 163.601L118.813 152.964L120.701 149.633L109.977 143.54L108.081 146.872L95.7462 146.968L93.8029 143.659L83.1659 149.902L85.1092 153.209L79.0175 163.942L75.1783 163.965L75.2738 176.3L79.105 176.276L85.3561 186.913L83.4602 190.253L94.1847 196.337L96.0806 193.006L108.415 192.91L110.359 196.226L120.996 189.975L119.06 186.668L125.144 175.943L128.982 175.912ZM102.156 179.806C96.6984 179.846 92.2486 175.46 92.2091 170.01C92.1697 164.561 96.5556 160.111 102.014 160.072C107.463 160.032 111.913 164.418 111.952 169.868C111.992 175.317 107.605 179.767 102.156 179.806Z" fill="#006D5A" stroke="#006D5A" stroke-width="0.607" stroke-miterlimit="10"/>
<path d="M63.1298 174.119C57.5656 174.433 48.691 174.78 39.223 174.547" stroke="#006D5A" stroke-width="0.607" stroke-miterlimit="10" stroke-linecap="round" stroke-linejoin="round"/>
<path d="M38.1445 152.005C38.1445 152.005 37.2762 159.956 41.2065 160.097C45.1361 160.237 68.715 160.802 68.715 160.802L67.5833 173.639" stroke="#006D5A" stroke-width="0.607" stroke-miterlimit="10" stroke-linecap="round" stroke-linejoin="round"/>
<path d="M68.6626 162.654L78.6035 160.921L78.6753 163.318L82.7742 163.506L82.6106 173.498L67.5834 173.639L68.6626 162.654Z" fill="white" stroke="#006D5A" stroke-width="0.607" stroke-miterlimit="10" stroke-linecap="round" stroke-linejoin="round"/>
<path d="M82.724 166.294L78.0266 166.104" stroke="#006D5A" stroke-width="0.607" stroke-miterlimit="10" stroke-linecap="round" stroke-linejoin="round"/>
<path d="M82.5115 168.811L77.8141 168.623" stroke="#006D5A" stroke-width="0.607" stroke-miterlimit="10" stroke-linecap="round" stroke-linejoin="round"/>
<path d="M82.4872 171.322L77.7898 171.132" stroke="#006D5A" stroke-width="0.607" stroke-miterlimit="10" stroke-linecap="round" stroke-linejoin="round"/>
<path d="M205.504 21.1107H205.49C201.113 21.1114 197.566 24.5487 197.566 28.7883C197.566 30.1087 197.902 31.3552 198.508 32.4402L199.439 33.8883C200.169 35.0235 200.649 36.2915 200.851 37.6155L201.218 40.0317H205.491H209.766L210.241 37.3536C210.445 36.2004 210.862 35.0924 211.473 34.0828L212.467 32.4373C213.072 31.3559 213.416 30.1173 213.418 28.8012C213.424 24.5753 209.865 21.1172 205.504 21.1107Z" fill="white" stroke="#006D5A" stroke-width="0.607" stroke-miterlimit="10" stroke-linecap="round" stroke-linejoin="round"/>
<path d="M208.292 29.01H202.689L204.135 41.0951H206.846L208.292 29.01Z" stroke="#006D5A" stroke-width="0.607" stroke-miterlimit="10" stroke-linecap="round" stroke-linejoin="round"/>
<path d="M205.49 40.031H201.218V43.8794H205.49H209.809V40.031H205.49Z" fill="#006D5A" stroke="#006D5A" stroke-width="0.607" stroke-miterlimit="10"/>
<path d="M205.513 18.3551V14.0495" stroke="#006D5A" stroke-width="0.607" stroke-miterlimit="10" stroke-linecap="round" stroke-linejoin="round"/>
<path d="M195.121 28.7467H190.816" stroke="#006D5A" stroke-width="0.607" stroke-miterlimit="10" stroke-linecap="round" stroke-linejoin="round"/>
<path d="M220.211 28.7467H215.905" stroke="#006D5A" stroke-width="0.607" stroke-miterlimit="10" stroke-linecap="round" stroke-linejoin="round"/>
<path d="M198.164 36.0956L195.121 39.139" stroke="#006D5A" stroke-width="0.607" stroke-miterlimit="10" stroke-linecap="round" stroke-linejoin="round"/>
<path d="M215.905 18.3551L212.862 21.3985" stroke="#006D5A" stroke-width="0.607" stroke-miterlimit="10" stroke-linecap="round" stroke-linejoin="round"/>
<path d="M198.164 21.3985L195.121 18.3551" stroke="#006D5A" stroke-width="0.607" stroke-miterlimit="10" stroke-linecap="round" stroke-linejoin="round"/>
<path d="M215.905 39.139L212.862 36.0956" stroke="#006D5A" stroke-width="0.607" stroke-miterlimit="10" stroke-linecap="round" stroke-linejoin="round"/>
<path d="M182.341 61.8431L182.274 52.2961L179.302 52.3148L174.47 44.0818L175.931 41.5034L167.631 36.7881L166.163 39.3664L156.617 39.4403L155.113 36.8799L146.88 41.7115L148.384 44.2712L143.67 52.5774L140.698 52.5961L140.772 62.143L143.737 62.1244L148.575 70.3574L147.108 72.9422L155.408 77.6511L156.876 75.0727L166.422 74.9988L167.926 77.5649L176.159 72.7276L174.661 70.1672L179.37 61.8667L182.341 61.8431ZM161.578 64.8577C157.354 64.8886 153.91 61.4936 153.88 57.2755C153.849 53.0575 157.244 49.6137 161.467 49.5829C165.685 49.552 169.129 52.947 169.16 57.165C169.19 61.3831 165.795 64.8268 161.578 64.8577Z" fill="white" stroke="#006D5A" stroke-width="0.607" stroke-miterlimit="10" stroke-linecap="round" stroke-linejoin="round"/>
<path d="M161.52 1V39.3377" stroke="#006D5A" stroke-width="0.607" stroke-miterlimit="10" stroke-linecap="round" stroke-linejoin="round"/>
<path d="M45.9663 86.166H25.8154C23.5299 86.166 21.6777 84.3139 21.6777 82.0284V70.5418C21.6777 68.2562 23.5299 66.4041 25.8154 66.4041H45.967C48.2519 66.4041 50.1047 68.2562 50.1047 70.5418V82.0284C50.104 84.3139 48.2519 86.166 45.9663 86.166Z" fill="#006D5A" stroke="#006D5A" stroke-width="0.607" stroke-miterlimit="10"/>
<path d="M40.8189 82.6563V93.7604L30.7288 82.6563H40.8189Z" fill="#006D5A" stroke="#006D5A" stroke-width="0.607" stroke-miterlimit="10"/>
<path d="M29.9086 77.4996C30.5878 77.4996 31.1385 76.9489 31.1385 76.2697C31.1385 75.5904 30.5878 75.0397 29.9086 75.0397C29.2293 75.0397 28.6786 75.5904 28.6786 76.2697C28.6786 76.9489 29.2293 77.4996 29.9086 77.4996Z" fill="white" stroke="white" stroke-width="0.6138" stroke-miterlimit="10" stroke-linecap="round" stroke-linejoin="round"/>
<path d="M35.9343 77.4996C36.6136 77.4996 37.1643 76.9489 37.1643 76.2697C37.1643 75.5904 36.6136 75.0397 35.9343 75.0397C35.255 75.0397 34.7043 75.5904 34.7043 76.2697C34.7043 76.9489 35.255 77.4996 35.9343 77.4996Z" fill="white" stroke="white" stroke-width="0.6138" stroke-miterlimit="10" stroke-linecap="round" stroke-linejoin="round"/>
<path d="M41.9599 77.4996C42.6392 77.4996 43.1899 76.9489 43.1899 76.2697C43.1899 75.5904 42.6392 75.0397 41.9599 75.0397C41.2807 75.0397 40.73 75.5904 40.73 76.2697C40.73 76.9489 41.2807 77.4996 41.9599 77.4996Z" fill="white" stroke="white" stroke-width="0.6138" stroke-miterlimit="10" stroke-linecap="round" stroke-linejoin="round"/>
</svg>
