<svg width="254" height="225" viewBox="0 0 254 225" fill="none" xmlns="http://www.w3.org/2000/svg">
<path d="M111.367 48.6333C108.974 45.5306 105.721 43.3709 101.611 42.1564C105.048 40.6054 107.626 38.3107 109.345 35.2744C111.064 32.2381 111.924 28.9996 111.924 25.5583C111.924 23.265 111.535 21.0217 110.761 18.8285C109.986 16.6366 108.891 14.6791 107.475 12.9588C106.06 11.2385 104.341 9.83896 102.319 8.75876C100.297 7.68071 98.0378 7.13918 95.5448 7.13918H90.5875V0H77.4539V7.13918H71.3017V0H58.1682V7.13918H55.6095H44.1282V16.0737L55.6095 18.7649V67.3696L44.1282 70.0608V78.9953H55.6095H58.1682V84.8821H71.3017V78.9953H77.4539V84.6349H90.5875V78.9953H90.591C93.8926 78.9953 97.0272 78.6081 99.9934 77.8315C102.958 77.0564 105.554 75.9083 107.778 74.3909C110.003 72.8728 111.755 70.9674 113.036 68.6727C114.315 66.3801 114.957 63.6804 114.957 60.5762C114.956 55.7182 113.759 51.7374 111.367 48.6333ZM72.1896 21.3082H89.0737C90.8258 21.3082 92.3253 21.9498 93.5729 23.2314C94.819 24.5138 95.4428 26.3356 95.4428 28.6967C95.4428 31.2615 94.7348 33.1497 93.3195 34.3642C91.9042 35.5787 90.2863 36.186 88.4663 36.186H72.1889V21.3082H72.1896ZM95.9488 62.8023C94.5335 64.219 92.7471 64.9277 90.5903 64.9277H72.1896V49.2413H91.2976C93.2517 49.2413 94.8697 50.0178 96.1508 51.5688C97.4305 53.122 98.0714 55.0095 98.0714 57.2363C98.0714 59.5303 97.3641 61.3856 95.9488 62.8023Z" fill="#E8E8E8"/>
<path d="M8.98541 124.137C14.6886 123.333 21.4902 119.339 26.165 126.136C29.3895 130.825 28.5794 137.24 35.7622 137.575C38.6098 137.707 41.1835 136.777 43.7656 138.441C46.0095 139.888 47.145 142.582 48.1271 144.949C48.9721 146.984 49.3782 149.853 50.6964 151.649C52.8482 154.582 55.7402 153.685 58.9361 154.032C61.9772 154.362 65.034 155.477 66.951 158.032C69.4868 161.412 68.2236 165.453 69.621 169.038C69.621 169.038 72.4708 184.033 56.2383 183.001C52.4022 182.757 48.6217 183.183 45.1431 180.787C42.5131 178.975 41.2734 175.965 40.818 172.937C40.3391 169.755 41.1142 166.826 38.0981 164.795C36.2511 163.551 33.3698 163.264 31.3037 162.503C28.9006 161.618 26.1636 160.595 24.627 158.41C22.8584 155.897 23.6806 153.283 23.4301 150.441C22.7984 143.271 16.4286 144.347 11.6147 141.317C4.63682 136.924 8.34094 129.955 8.90691 124.218L8.98541 124.137Z" fill="#002620"/>
<path d="M18.8802 133.717L69.7552 182.574" stroke="white" stroke-width="0.6158" stroke-miterlimit="10" stroke-linecap="round" stroke-linejoin="round"/>
<path d="M38.4157 142.901L40.0137 154.011" stroke="white" stroke-width="0.6158" stroke-miterlimit="10" stroke-linecap="round" stroke-linejoin="round"/>
<path d="M58.1789 171.457L48.2192 173.001" stroke="white" stroke-width="0.6158" stroke-miterlimit="10" stroke-linecap="round" stroke-linejoin="round"/>
<path d="M33.6368 147.887L25.4206 147.277" stroke="white" stroke-width="0.6158" stroke-miterlimit="10" stroke-linecap="round" stroke-linejoin="round"/>
<path d="M69.4026 157.632C69.4026 157.632 75.2165 108.613 29.3867 75.4421C16.408 125.522 62.2142 166.291 62.2142 166.291L69.4026 157.632Z" fill="white" stroke="#006D5A" stroke-width="0.607" stroke-miterlimit="10" stroke-linecap="round" stroke-linejoin="round"/>
<path d="M49.84 95.0183L46.9759 118.033" stroke="white" stroke-width="0.6158" stroke-miterlimit="10" stroke-linecap="round" stroke-linejoin="round"/>
<path d="M51.707 129.489L30.9803 117.855" stroke="white" stroke-width="0.6158" stroke-miterlimit="10" stroke-linecap="round" stroke-linejoin="round"/>
<path d="M34.2249 126.551L55.2741 138.127" stroke="white" stroke-width="0.6158" stroke-miterlimit="10" stroke-linecap="round" stroke-linejoin="round"/>
<path d="M29.3867 75.4411L65.5151 162.924" stroke="white" stroke-width="0.6158" stroke-miterlimit="10" stroke-linecap="round" stroke-linejoin="round"/>
<path d="M213.749 36.4725L213.037 31.9659L198.56 34.2592L199.273 38.7657L187.881 47.9967L183.625 46.3614L178.371 60.0575L182.626 61.6928L184.917 76.1841L181.374 79.0553L190.596 90.4589L194.139 87.5876L207.821 92.8472L208.534 97.3544L223.01 95.0611L222.298 90.5546L233.69 81.3229L237.945 82.9589L243.2 69.2628L238.944 67.6268L236.654 53.1355L240.197 50.265L230.975 38.8615L227.432 41.7327L213.749 36.4725Z" fill="#E8E8E8"/>
<path d="M219.316 72.6986C223.757 67.9805 223.537 60.5517 218.823 56.1059C214.11 51.6601 206.689 51.8808 202.247 56.5989C197.806 61.317 198.026 68.7457 202.74 73.1915C207.453 77.6374 214.874 77.4166 219.316 72.6986Z" fill="white"/>
<path d="M196.321 92.6479H43.8641C41.1706 92.6479 38.9874 94.8333 38.9874 97.5295V187.062H201.199V97.5295C201.199 94.8333 199.015 92.6479 196.321 92.6479Z" fill="#E8E8E8"/>
<path d="M193.741 99.3498H46.4442V180.361H193.741V99.3498Z" fill="white"/>
<path d="M204.251 194.561H35.9349C33.4012 194.561 31.3472 192.505 31.3472 189.969V187.062H208.839V189.969C208.839 192.505 206.785 194.561 204.251 194.561Z" fill="white" stroke="#006D5A" stroke-width="0.607" stroke-miterlimit="10" stroke-linecap="round" stroke-linejoin="round"/>
<path d="M129.944 190.502H110.242C108.715 190.502 107.477 189.263 107.477 187.735V187.063H132.71V187.735C132.709 189.263 131.471 190.502 129.944 190.502Z" fill="#006D5A" stroke="#006D5A" stroke-width="0.607" stroke-miterlimit="10"/>
<path d="M19.504 194.561H220.838" stroke="#006D5A" stroke-width="0.607" stroke-miterlimit="10" stroke-linecap="round" stroke-linejoin="round"/>
<path d="M72.8027 142.948H124.837V112.039L72.8027 119.823V142.948Z" fill="#006D5A" stroke="#006D5A" stroke-width="0.607" stroke-miterlimit="10"/>
<path d="M92.7022 60.9663C92.7022 60.9663 98.6895 52.9884 100.89 52.254C103.506 53.5756 107.931 57.98 107.931 57.98L105.73 60.329L108.568 59.0416L111.583 62.1565L101.377 72.0598L92.7022 60.9663Z" fill="#006D5A" stroke="#006D5A" stroke-width="0.607" stroke-miterlimit="10"/>
<path d="M145.598 91.0161C145.598 91.0161 145.304 84.6292 148.128 82.6103C149.459 81.6587 154.838 79.5269 154.838 79.5269L155.938 81.6194L152.307 83.4912L160.118 83.8212L164.188 80.1784L165.728 81.3979L160.998 88.7757L154.947 91.0147H145.598V91.0161Z" fill="white" stroke="#006D5A" stroke-width="0.607" stroke-miterlimit="10" stroke-linecap="round" stroke-linejoin="round"/>
<path d="M72.0497 224L80.1724 215.635H87.034V224H72.0497Z" fill="#006D5A" stroke="#006D5A" stroke-width="0.607" stroke-miterlimit="10"/>
<path d="M116.731 224L111.474 215.635H104.612V224H116.731Z" fill="#006D5A" stroke="#006D5A" stroke-width="0.607" stroke-miterlimit="10"/>
<path d="M120.749 142.793V217.851H99.7015V157.976H96.9602L93.1012 217.851H72.0497L75.9087 157.976L76.8901 142.793H120.749Z" fill="white" stroke="#006D5A" stroke-width="0.607" stroke-miterlimit="10" stroke-linecap="round" stroke-linejoin="round"/>
<path d="M130.778 105.699C130.778 88.3456 117.501 80.6056 100.17 80.192C99.815 80.1834 99.4567 80.1791 99.0948 80.1791C73.0225 80.1791 64.7971 99.1498 63.5617 102.423C60.8118 109.712 53.0723 132.568 78.0077 143.139C85.5116 146.321 90.8687 138.606 94.8761 136.542C101.859 132.945 104.376 132.045 104.376 132.045L130.778 105.699Z" fill="#006D5A" stroke="#006D5A" stroke-width="0.607" stroke-miterlimit="10"/>
<path d="M126.014 136.578L97.0155 107.551L59.7287 144.875L88.7275 173.902L126.014 136.578Z" fill="#E8E8E8"/>
<path d="M121.274 134.609L98.9821 112.295L66.542 144.768L88.8338 167.082L121.274 134.609Z" fill="white"/>
<path d="M119.227 126.838L115.344 130.725L102.863 118.232L106.746 114.345L111 118.603C112.112 117.813 113.663 117.92 114.659 118.917C115.654 119.914 115.763 121.465 114.972 122.579L119.227 126.838Z" fill="white" stroke="#006D5A" stroke-width="0.607" stroke-miterlimit="10" stroke-linecap="round" stroke-linejoin="round"/>
<path d="M92.9798 122.543L92.7022 124.302L95.9381 123.284" stroke="#006D5A" stroke-width="0.607" stroke-miterlimit="10" stroke-linecap="round" stroke-linejoin="round"/>
<path d="M96.0916 125.565L110.037 139.524" stroke="#006D5A" stroke-width="0.607" stroke-miterlimit="10" stroke-linecap="round" stroke-linejoin="round"/>
<path d="M89.1943 126.332L88.9174 128.09L92.1526 127.072" stroke="#006D5A" stroke-width="0.607" stroke-miterlimit="10" stroke-linecap="round" stroke-linejoin="round"/>
<path d="M92.3061 129.355L106.252 143.314" stroke="#006D5A" stroke-width="0.607" stroke-miterlimit="10" stroke-linecap="round" stroke-linejoin="round"/>
<path d="M85.4096 130.121L85.132 131.879L88.3679 130.861" stroke="#006D5A" stroke-width="0.607" stroke-miterlimit="10" stroke-linecap="round" stroke-linejoin="round"/>
<path d="M88.5213 133.143L102.466 147.103" stroke="#006D5A" stroke-width="0.607" stroke-miterlimit="10" stroke-linecap="round" stroke-linejoin="round"/>
<path d="M97.8266 84.8778C100.451 84.8778 102.579 82.7482 102.579 80.1205V64.6598H93.074V80.1205C93.074 82.7482 95.2016 84.8778 97.8266 84.8778Z" fill="white" stroke="#006D5A" stroke-width="0.607" stroke-miterlimit="10" stroke-linecap="round" stroke-linejoin="round"/>
<path d="M106.731 69.5093C106.163 70.8531 104.612 71.4818 103.271 70.9138C103.063 70.826 102.87 70.7131 102.7 70.5802C102.161 71.3918 101.469 72.0647 100.681 72.5756C98.7887 73.8036 96.3399 74.1001 94.1061 73.1542C90.5233 71.6368 88.8496 67.5039 90.3648 63.9175C91.8807 60.3312 96.0095 58.6558 99.5923 60.1726C102.02 61.2006 103.574 63.431 103.843 65.8793C104.328 65.79 104.842 65.8393 105.328 66.0458C106.67 66.6137 107.299 68.1655 106.731 69.5093Z" fill="white" stroke="#006D5A" stroke-width="0.607" stroke-miterlimit="10" stroke-linecap="round" stroke-linejoin="round"/>
<path d="M102.638 68.8834C102.638 68.8834 103.235 67.6868 104.373 68.3641" stroke="#006D5A" stroke-width="0.607" stroke-miterlimit="10" stroke-linecap="round" stroke-linejoin="round"/>
<path d="M119.227 114.345C119.227 114.345 122.011 127.037 137.559 124.297C153.107 121.556 156.921 91.0161 156.921 91.0161H144.893L136.093 108.635C136.093 108.635 129.712 92.0806 121.721 86.4081C116.848 82.9482 119.227 114.345 119.227 114.345Z" fill="#006D5A" stroke="#006D5A" stroke-width="0.607" stroke-miterlimit="10"/>
<path d="M124.652 109.37V122.543" stroke="white" stroke-width="0.6158" stroke-miterlimit="10" stroke-linecap="round" stroke-linejoin="round"/>
<path d="M99.5923 60.1726C102.639 61.6878 103.754 65.4314 101.689 67.4139C103.842 65.8793 103.842 65.8793 103.842 65.8793L107.27 63.7046C107.27 63.7046 100.816 58.9488 99.5923 60.1726Z" fill="#006D5A" stroke="#006D5A" stroke-width="0.607" stroke-miterlimit="10"/>
<path d="M88.6198 140.308L92.9963 144.715L96.5205 148.888L95.0382 150.373L96.3407 152.088L89.0352 157.769L79.5415 146.349L88.6198 140.308Z" fill="white" stroke="#006D5A" stroke-width="0.607" stroke-miterlimit="10" stroke-linecap="round" stroke-linejoin="round"/>
<path d="M94.8219 153.185L91.6809 149.601" stroke="#006D5A" stroke-width="0.607" stroke-miterlimit="10" stroke-linecap="round" stroke-linejoin="round"/>
<path d="M92.7629 154.596L89.6219 151.012" stroke="#006D5A" stroke-width="0.607" stroke-miterlimit="10" stroke-linecap="round" stroke-linejoin="round"/>
<path d="M90.828 156.147L87.687 152.562" stroke="#006D5A" stroke-width="0.607" stroke-miterlimit="10" stroke-linecap="round" stroke-linejoin="round"/>
<path d="M95.0796 150.447L92.7629 147.768" stroke="#006D5A" stroke-width="0.607" stroke-miterlimit="10" stroke-linecap="round" stroke-linejoin="round"/>
<path d="M76.9079 110.03C74.8453 114.435 75.4027 118.98 77.1441 123.146C80.9746 132.313 90.5354 139.652 90.5354 139.652L78.4317 148.682C78.4317 148.682 62.1756 134.907 61.3406 125.585" fill="#006D5A"/>
<path d="M76.9079 110.03C74.8453 114.435 75.4027 118.98 77.1441 123.146C80.9746 132.313 90.5354 139.652 90.5354 139.652L78.4317 148.682C78.4317 148.682 62.1756 134.907 61.3406 125.585" stroke="#006D5A" stroke-width="0.607" stroke-miterlimit="10"/>
<path d="M76.9079 110.03C74.8453 114.435 75.4027 118.98 77.1441 123.146" stroke="white" stroke-width="0.6158" stroke-miterlimit="10" stroke-linecap="round" stroke-linejoin="round"/>
<path d="M145.33 66.2844C141.384 62.733 139.12 57.6492 139.12 52.3368V39.0101H173.28V52.3361C173.28 57.6485 171.016 62.7323 167.07 66.2837L156.2 76.0684L145.33 66.2844Z" fill="#006D5A" stroke="#006D5A" stroke-width="0.607" stroke-miterlimit="10"/>
<path d="M142.547 42.4407H169.853V52.3361C169.853 56.6833 168.009 60.8263 164.779 63.7325L156.2 71.4539L147.622 63.7325C144.392 60.8255 142.548 56.6833 142.548 52.3361V42.4407H142.547Z" fill="white"/>
<path d="M162.586 54.2593C160.777 56.0704 157.844 56.0704 156.036 54.2593C154.226 52.449 154.226 49.5127 156.036 47.7024C157.844 45.8913 160.777 45.8913 162.586 47.7024C164.395 49.5134 164.395 52.449 162.586 54.2593Z" fill="#006D5A" stroke="#006D5A" stroke-width="0.607" stroke-miterlimit="10"/>
<path d="M159.311 50.9809L151.257 59.0431L153.775 61.5635" stroke="#006D5A" stroke-width="2" stroke-miterlimit="10"/>
<path d="M155.372 58.628L153.522 56.7755" stroke="#006D5A" stroke-width="2" stroke-miterlimit="10"/>
<path d="M161.052 52.724C160.089 53.6871 158.531 53.6871 157.569 52.724C156.607 51.7617 156.607 50.2007 157.569 49.2377C158.531 48.2753 160.089 48.2753 161.052 49.2377C162.014 50.2007 162.014 51.7617 161.052 52.724Z" fill="white"/>
<path d="M64.0455 224H135.484" stroke="#006D5A" stroke-width="0.607" stroke-miterlimit="10" stroke-linecap="round" stroke-linejoin="round"/>
<path d="M253.36 86.9518H169.565V167.471H253.36V86.9518Z" fill="white" stroke="#006D5A" stroke-width="0.607" stroke-miterlimit="10" stroke-linecap="round" stroke-linejoin="round"/>
<path d="M191.076 116.966H185.644V124.439H191.076V116.966Z" fill="#E8E8E8"/>
<path d="M199.736 109.493H194.304V124.439H199.736V109.493Z" fill="#E8E8E8"/>
<path d="M208.394 105.827H202.964V124.439H208.394V105.827Z" fill="#E8E8E8"/>
<path d="M217.054 110H211.623V124.439H217.054V110Z" fill="#E8E8E8"/>
<path d="M225.714 98.141H220.283V124.439H225.714V98.141Z" fill="#006D5A" stroke="#006D5A" stroke-width="0.607" stroke-miterlimit="10"/>
<path d="M234.374 106.978H228.943V124.439H234.374V106.978Z" fill="#E8E8E8"/>
<path d="M177.897 124.439H244.518" stroke="#006D5A" stroke-width="0.607" stroke-miterlimit="10" stroke-linecap="round" stroke-linejoin="round"/>
<path d="M179.716 153.488L185.087 147.167L191.295 151.112L198.507 142.56L205.679 154.319L217.054 136.042L223.995 147.167L241.855 130.494" stroke="#006D5A" stroke-width="0.607" stroke-miterlimit="10" stroke-linecap="round" stroke-linejoin="round"/>
<path d="M177.642 158.419H244.694" stroke="#006D5A" stroke-width="0.607" stroke-miterlimit="10" stroke-linecap="round" stroke-linejoin="round"/>
<path d="M239.261 129.69L243.397 129.267L241.855 132.9" stroke="#006D5A" stroke-width="0.607" stroke-miterlimit="10" stroke-linecap="round" stroke-linejoin="round"/>
<path d="M198.507 142.56V158.419" stroke="#006D5A" stroke-width="0.607" stroke-miterlimit="10" stroke-linecap="round" stroke-linejoin="round" stroke-dasharray="6.22 3.11"/>
<path d="M217.054 136.042V158.419" stroke="#006D5A" stroke-width="0.607" stroke-miterlimit="10" stroke-linecap="round" stroke-linejoin="round" stroke-dasharray="6.22 3.11"/>
<path d="M19.504 61.3235C29.9222 61.3235 38.3679 52.8694 38.3679 42.4407C38.3679 32.012 29.9222 23.5579 19.504 23.5579C9.08574 23.5579 0.640076 32.012 0.640076 42.4407C0.640076 52.8694 9.08574 61.3235 19.504 61.3235Z" fill="white" stroke="#006D5A" stroke-width="0.607" stroke-miterlimit="10" stroke-linecap="round" stroke-linejoin="round" stroke-dasharray="6.22 3.11"/>
<path d="M21.8882 58.6385L23.1728 58.6742V62.8137H21.8882V58.6385ZM21.9952 58.3887V34.8361L23.1015 34.6934V58.4601L21.9952 58.3887ZM21.8882 30.197H23.1728V34.6577L21.8882 34.8004V30.197ZM29.7033 38.1549C29.2989 37.7029 28.8469 37.3103 28.3473 36.9773C27.8715 36.6204 27.3362 36.3349 26.7414 36.1208C26.1704 35.8829 25.5519 35.7045 24.8858 35.5855C24.2434 35.4666 23.5416 35.4071 22.7803 35.4071C20.3061 35.4071 18.498 35.8829 17.3561 36.8345C16.2379 37.7623 15.6788 39.0232 15.6788 40.6172C15.6788 41.6878 15.9286 42.5442 16.4282 43.1866C16.9516 43.8051 17.7605 44.3047 18.8549 44.6854C19.9492 45.066 21.3529 45.4348 23.0658 45.7916C24.8977 46.1723 26.4797 46.6243 27.812 47.1477C29.168 47.6473 30.2029 48.3372 30.9166 49.2175C31.6304 50.0977 31.9872 51.2872 31.9872 52.786C31.9872 53.9042 31.7731 54.8915 31.3449 55.7479C30.9166 56.5806 30.2981 57.2705 29.4892 57.8177C28.7041 58.3649 27.7525 58.7812 26.6344 59.0667C25.54 59.3522 24.3148 59.4949 22.9587 59.4949C21.6265 59.4949 20.3656 59.3522 19.176 59.0667C18.0103 58.7812 16.9041 58.3649 15.8573 57.8177C14.8105 57.2705 13.8232 56.5687 12.8954 55.7123L13.8946 54.2491C14.418 54.8201 15.0008 55.3316 15.6432 55.7836C16.3093 56.2119 17.023 56.5806 17.7843 56.8899C18.5694 57.1992 19.3902 57.449 20.2466 57.6393C21.1269 57.8058 22.0428 57.8891 22.9944 57.8891C25.2069 57.8891 26.9436 57.4846 28.2045 56.6758C29.4654 55.8431 30.0959 54.6179 30.0959 53.0001C30.0959 51.882 29.7985 50.9779 29.2037 50.288C28.6328 49.5981 27.7525 49.039 26.563 48.6108C25.3973 48.1588 23.9222 47.7424 22.138 47.3618C20.3537 46.9812 18.8311 46.5529 17.5702 46.0771C16.3331 45.6013 15.3934 44.959 14.751 44.1501C14.1087 43.3412 13.7875 42.2468 13.7875 40.867C13.7875 39.3444 14.1682 38.0597 14.9294 37.0129C15.6907 35.9424 16.7375 35.1335 18.0698 34.5863C19.4258 34.0391 20.996 33.7655 22.7803 33.7655C23.8747 33.7655 24.8858 33.8726 25.8136 34.0867C26.7414 34.3008 27.5979 34.6339 28.383 35.0859C29.1918 35.5141 29.9412 36.0613 30.6312 36.7275L29.7033 38.1549Z" fill="#006D5A"/>
<path d="M30.9803 62.1579C30.9803 62.1579 33.5268 73.5715 47.4505 74.7695" stroke="#006D5A" stroke-width="0.607" stroke-miterlimit="10" stroke-linecap="round" stroke-linejoin="round" stroke-dasharray="6.22 3.11"/>
</svg>
