<svg width="46" height="16" viewBox="0 0 46 16" fill="none" xmlns="http://www.w3.org/2000/svg">
<path fill-rule="evenodd" clip-rule="evenodd" d="M11.9194 15.6973H7.98674L5.03773 3.56559C4.89775 3.00753 4.60055 2.51417 4.16338 2.28165C3.07235 1.6973 1.87012 1.23225 0.558594 0.997707V0.530634H6.89381C7.76816 0.530634 8.42392 1.23225 8.53321 2.0471L10.0633 10.7981L13.9941 0.530634H17.8174L11.9194 15.6973ZM20.0033 15.6973H16.2892L19.3476 0.530634H23.0616L20.0033 15.6973ZM27.8667 4.73227C27.976 3.9154 28.6318 3.44833 29.3968 3.44833C30.5991 3.33106 31.9087 3.5656 33.0016 4.14793L33.6574 0.882466C32.5645 0.415394 31.3622 0.180847 30.2712 0.180847C26.6664 0.180847 24.0434 2.28166 24.0434 5.19732C24.0434 7.41541 25.9014 8.58006 27.2129 9.28168C28.6318 9.98128 29.1783 10.4483 29.069 11.1479C29.069 12.1973 27.976 12.6644 26.885 12.6644C25.5735 12.6644 24.262 12.3146 23.0616 11.7303L22.4059 14.9978C23.7174 15.5801 25.1363 15.8146 26.4478 15.8146C30.4898 15.9299 33.0016 13.8311 33.0016 10.6809C33.0016 6.71379 27.8667 6.48127 27.8667 4.73227ZM45.9999 15.6973L43.0509 0.530634H39.8833C39.2276 0.530634 38.5718 0.997707 38.3532 1.6973L32.8923 15.6973H36.7157L37.4788 13.4813H42.1766L42.6137 15.6973H45.9999ZM40.4298 4.61501L41.5208 10.3311H38.4625L40.4298 4.61501Z" fill="white"/>
</svg>
