<svg width="17" height="17" viewBox="0 0 17 17" fill="none" xmlns="http://www.w3.org/2000/svg">
<g clip-path="url(#clip0_171_3170)">
<path d="M13.314 2.18164H11.814V1.68164C11.814 1.54903 11.7613 1.42186 11.6675 1.32809C11.5738 1.23432 11.4466 1.18164 11.314 1.18164C11.1814 1.18164 11.0542 1.23432 10.9604 1.32809C10.8666 1.42186 10.814 1.54903 10.814 1.68164V2.18164H5.81396V1.68164C5.81396 1.54903 5.76129 1.42186 5.66752 1.32809C5.57375 1.23432 5.44657 1.18164 5.31396 1.18164C5.18136 1.18164 5.05418 1.23432 4.96041 1.32809C4.86664 1.42186 4.81396 1.54903 4.81396 1.68164V2.18164H3.31396C3.04875 2.18164 2.79439 2.287 2.60686 2.47453C2.41932 2.66207 2.31396 2.91642 2.31396 3.18164V13.1816C2.31396 13.4469 2.41932 13.7012 2.60686 13.8887C2.79439 14.0763 3.04875 14.1816 3.31396 14.1816H13.314C13.5792 14.1816 13.8335 14.0763 14.0211 13.8887C14.2086 13.7012 14.314 13.4469 14.314 13.1816V3.18164C14.314 2.91642 14.2086 2.66207 14.0211 2.47453C13.8335 2.287 13.5792 2.18164 13.314 2.18164ZM10.9177 8.53539L7.91772 11.5354C7.87128 11.5819 7.81613 11.6188 7.75543 11.6439C7.69474 11.6691 7.62967 11.682 7.56396 11.682C7.49826 11.682 7.43319 11.6691 7.37249 11.6439C7.3118 11.6188 7.25665 11.5819 7.21021 11.5354L5.71021 10.0354C5.61639 9.94157 5.56369 9.81432 5.56369 9.68164C5.56369 9.54896 5.61639 9.42171 5.71021 9.32789C5.80403 9.23407 5.93128 9.18136 6.06396 9.18136C6.19665 9.18136 6.32389 9.23407 6.41772 9.32789L7.56396 10.4748L10.2102 7.82789C10.2567 7.78144 10.3118 7.74459 10.3725 7.71944C10.4332 7.6943 10.4983 7.68136 10.564 7.68136C10.6297 7.68136 10.6947 7.6943 10.7554 7.71944C10.8161 7.74459 10.8713 7.78144 10.9177 7.82789C10.9642 7.87435 11.001 7.9295 11.0262 7.99019C11.0513 8.05089 11.0642 8.11594 11.0642 8.18164C11.0642 8.24734 11.0513 8.31239 11.0262 8.37309C11.001 8.43379 10.9642 8.48894 10.9177 8.53539ZM3.31396 5.18164V3.18164H4.81396V3.68164C4.81396 3.81425 4.86664 3.94143 4.96041 4.03519C5.05418 4.12896 5.18136 4.18164 5.31396 4.18164C5.44657 4.18164 5.57375 4.12896 5.66752 4.03519C5.76129 3.94143 5.81396 3.81425 5.81396 3.68164V3.18164H10.814V3.68164C10.814 3.81425 10.8666 3.94143 10.9604 4.03519C11.0542 4.12896 11.1814 4.18164 11.314 4.18164C11.4466 4.18164 11.5738 4.12896 11.6675 4.03519C11.7613 3.94143 11.814 3.81425 11.814 3.68164V3.18164H13.314V5.18164H3.31396Z" fill="#9CA3AF"/>
</g>
<defs>
<clipPath id="clip0_171_3170">
<rect width="16" height="16" fill="white" transform="translate(0.313965 0.181641)"/>
</clipPath>
</defs>
</svg>
