<svg width="41" height="17" viewBox="0 0 41 17" fill="none" xmlns="http://www.w3.org/2000/svg">
<path d="M20.5 0.855469C13.1348 0.873047 6.10352 2.45508 2.53516 6.02344C0.917969 7.64062 0.0917969 9.5918 0.162109 11.9473C0.214844 13.2656 0.583984 14.6016 1.42773 15.4453C2.00781 16.043 2.83398 16.377 3.85352 16.2012L10.3398 15.0938C11.2012 14.9355 11.8516 14.6543 12.3086 14.2148C12.8711 13.6875 13.082 12.8438 13.082 11.7012L13.1172 9.92578C13.1172 9.64453 13.2227 9.43359 13.3984 9.25781C13.5566 9.06445 13.8027 8.97656 13.9961 8.92383C15.1211 8.625 17.5293 8.30859 20.5 8.30859C23.4707 8.30859 25.8613 8.55469 27.0039 8.94141C27.1973 8.99414 27.4082 9.09961 27.5664 9.25781C27.7422 9.41602 27.8301 9.60938 27.8301 9.87305L27.8828 11.7012C27.918 12.8438 28.1465 13.6699 28.6914 14.2148C29.1484 14.6719 29.7988 14.9355 30.6777 15.0938L36.9707 16.166C38.043 16.3594 38.9219 15.9902 39.5898 15.3398C40.3633 14.5488 40.8203 13.3184 40.8379 11.877C40.873 9.52148 39.9766 7.58789 38.3945 6.02344C34.8262 2.45508 27.8652 0.837891 20.5 0.855469Z" fill="white"/>
</svg>
