<svg width="33" height="33" viewBox="0 0 33 33" fill="none" xmlns="http://www.w3.org/2000/svg">
<path d="M9.11719 24.0781C14.0039 28.9648 20.1035 32.8145 25.1309 32.8145C27.4336 32.8145 29.4023 32.0234 31.0195 30.2832C31.916 29.334 32.584 28.1035 32.584 26.9258C32.584 26.082 32.2676 25.2734 31.4062 24.6758L26.0449 20.8965C25.3066 20.3867 24.6562 20.1055 24.041 20.1055C23.25 20.1055 22.5117 20.5273 21.7031 21.3184L20.4199 22.5664C20.2266 22.7598 19.998 22.8301 19.752 22.8301C19.5059 22.8301 19.2773 22.7422 19.084 22.6543C18.0469 22.1094 16.1484 20.6152 14.373 18.8223C12.5801 17.0293 11.0508 15.166 10.541 14.0938C10.4531 13.9004 10.3652 13.6719 10.3652 13.4609C10.3652 13.2324 10.4355 13.0215 10.6289 12.8281L11.877 11.5098C12.6504 10.666 13.0723 9.92773 13.0723 9.1543C13.0723 8.52148 12.8086 7.87109 12.2812 7.13281L8.58984 1.91211C7.97461 1.05078 7.11328 0.664062 6.16406 0.664062C5.05664 0.664062 3.86133 1.20898 2.8418 2.21094C1.1543 3.8457 0.416016 5.86719 0.416016 8.09961C0.416016 13.127 4.21289 19.1738 9.11719 24.0781Z" fill="white"/>
</svg>
