<svg width="21" height="21" viewBox="0 0 21 21" fill="none" xmlns="http://www.w3.org/2000/svg">
<g clip-path="url(#clip0_171_3876)">
<path d="M10.9736 2.51172C9.36666 2.51172 7.79578 2.98824 6.45963 3.88103C5.12348 4.77381 4.08208 6.04277 3.46712 7.52742C2.85215 9.01207 2.69125 10.6457 3.00476 12.2218C3.31826 13.7979 4.09209 15.2457 5.22839 16.382C6.3647 17.5183 7.81243 18.2921 9.38853 18.6056C10.9646 18.9191 12.5983 18.7582 14.0829 18.1432C15.5676 17.5283 16.8365 16.4869 17.7293 15.1507C18.6221 13.8146 19.0986 12.2437 19.0986 10.6367C19.0964 8.48253 18.2396 6.41723 16.7164 4.89399C15.1931 3.37075 13.1278 2.51399 10.9736 2.51172ZM13.2799 13.9484C13.3008 13.996 13.3095 14.048 13.3053 14.0998C13.301 14.1516 13.2839 14.2015 13.2555 14.245C13.2272 14.2885 13.1884 14.3242 13.1427 14.349C13.097 14.3737 13.0459 14.3867 12.9939 14.3867H8.95332C8.90137 14.3867 8.85025 14.3737 8.80457 14.349C8.7589 14.3242 8.72012 14.2885 8.69173 14.245C8.66334 14.2015 8.64625 14.1516 8.642 14.0998C8.63775 14.048 8.64648 13.996 8.66739 13.9484L9.72364 11.5523C9.24703 11.2772 8.87454 10.8524 8.66394 10.344C8.45333 9.83555 8.41638 9.27182 8.55882 8.74023C8.70126 8.20865 9.01512 7.73892 9.45173 7.4039C9.88834 7.06887 10.4233 6.88728 10.9736 6.88728C11.524 6.88728 12.0589 7.06887 12.4955 7.4039C12.9321 7.73892 13.246 8.20865 13.3885 8.74023C13.5309 9.27182 13.4939 9.83555 13.2833 10.344C13.0727 10.8524 12.7002 11.2772 12.2236 11.5523L13.2799 13.9484Z" fill="#1364FF"/>
</g>
<defs>
<clipPath id="clip0_171_3876">
<rect width="20" height="20" fill="white" transform="translate(0.973633 0.636719)"/>
</clipPath>
</defs>
</svg>
