<svg width="20" height="20" viewBox="0 0 20 20" fill="none" xmlns="http://www.w3.org/2000/svg">
<path d="M10 20C15.5228 20 20 15.5228 20 10C20 4.47715 15.5228 0 10 0C4.47715 0 0 4.47715 0 10C0 15.5228 4.47715 20 10 20Z" fill="#6B7280"/>
<path d="M13.7107 5.58328L14.402 6.27465C14.6406 6.51325 14.6406 6.90012 14.402 7.13876L7.14454 14.3961C6.90594 14.6348 6.51907 14.6347 6.28043 14.3961L5.5891 13.7048C5.35051 13.4662 5.35051 13.0793 5.5891 12.8407L12.8465 5.58321C13.0852 5.34465 13.472 5.34465 13.7107 5.58328Z" fill="white"/>
<path d="M14.402 13.7048L13.7106 14.3962C13.472 14.6348 13.0852 14.6348 12.8465 14.3962L5.5891 7.13872C5.35051 6.90012 5.35051 6.51325 5.5891 6.27461L6.28047 5.58324C6.51907 5.34465 6.90594 5.34465 7.14458 5.58324L14.402 12.8407C14.6406 13.0793 14.6406 13.4662 14.402 13.7048Z" fill="white"/>
</svg>
