<svg width="16" height="16" viewBox="0 0 16 16" fill="none" xmlns="http://www.w3.org/2000/svg">
<g clip-path="url(#clip0_171_3107)">
<path d="M7.75 10.9365C7.82556 10.9797 7.91109 11.0024 7.99813 11.0024C8.08516 11.0024 8.17069 10.9797 8.24625 10.9365C8.39937 10.8484 11.9963 8.74903 11.9963 5.00216C11.9648 3.96297 11.53 2.97685 10.784 2.25274C10.038 1.52864 9.0393 1.12345 7.99964 1.12305C6.95998 1.12264 5.961 1.52704 5.2144 2.25057C4.4678 2.97409 4.03223 3.95987 4 4.99903C4 8.74903 7.59875 10.8453 7.75 10.9365ZM8 3.49903C8.29667 3.49903 8.58668 3.58701 8.83335 3.75183C9.08003 3.91665 9.27229 4.15092 9.38582 4.42501C9.49935 4.6991 9.52906 5.0007 9.47118 5.29167C9.4133 5.58264 9.27044 5.84992 9.06066 6.05969C8.85088 6.26947 8.58361 6.41233 8.29264 6.47021C8.00166 6.52809 7.70006 6.49839 7.42597 6.38485C7.15189 6.27132 6.91762 6.07906 6.7528 5.83239C6.58797 5.58572 6.5 5.29571 6.5 4.99903C6.5 4.60121 6.65804 4.21968 6.93934 3.93837C7.22064 3.65707 7.60218 3.49903 8 3.49903ZM15 11.499C15 13.4478 11.3931 14.499 8 14.499C4.60687 14.499 1 13.4478 1 11.499C1 10.5872 1.82625 9.77966 3.32687 9.22591C3.44994 9.18525 3.58398 9.19397 3.70074 9.25022C3.8175 9.30647 3.90785 9.40587 3.95275 9.52744C3.99766 9.64902 3.9936 9.78328 3.94143 9.90192C3.88926 10.0206 3.79307 10.1143 3.67313 10.1634C2.64125 10.5453 2 11.0565 2 11.499C2 12.334 4.2825 13.499 8 13.499C11.7175 13.499 14 12.334 14 11.499C14 11.0565 13.3587 10.5453 12.3269 10.164C12.2069 10.1149 12.1107 10.0212 12.0586 9.90255C12.0064 9.78391 12.0023 9.64964 12.0472 9.52807C12.0921 9.40649 12.1825 9.3071 12.2993 9.25085C12.416 9.1946 12.5501 9.18588 12.6731 9.22653C14.1737 9.77966 15 10.5872 15 11.499Z" fill="#9CA3AF"/>
</g>
<defs>
<clipPath id="clip0_171_3107">
<rect width="16" height="16" fill="white"/>
</clipPath>
</defs>
</svg>
