<svg width="48" height="48" viewBox="0 0 48 48" fill="none" xmlns="http://www.w3.org/2000/svg">
<path d="M44.97 18.6043C44.1621 17.76 43.3264 16.89 43.0114 16.125C42.72 15.4243 42.7029 14.2629 42.6857 13.1379C42.6536 11.0464 42.6193 8.67643 40.9714 7.02857C39.3236 5.38071 36.9536 5.34643 34.8621 5.31429C33.7371 5.29714 32.5757 5.28 31.875 4.98857C31.1121 4.67357 30.24 3.83786 29.3957 3.03C27.9171 1.60929 26.2371 0 24 0C21.7629 0 20.085 1.60929 18.6043 3.03C17.76 3.83786 16.89 4.67357 16.125 4.98857C15.4286 5.28 14.2629 5.29714 13.1379 5.31429C11.0464 5.34643 8.67643 5.38071 7.02857 7.02857C5.38071 8.67643 5.35714 11.0464 5.31429 13.1379C5.29714 14.2629 5.28 15.4243 4.98857 16.125C4.67357 16.8879 3.83786 17.76 3.03 18.6043C1.60929 20.0829 0 21.7629 0 24C0 26.2371 1.60929 27.915 3.03 29.3957C3.83786 30.24 4.67357 31.11 4.98857 31.875C5.28 32.5757 5.29714 33.7371 5.31429 34.8621C5.34643 36.9536 5.38071 39.3236 7.02857 40.9714C8.67643 42.6193 11.0464 42.6536 13.1379 42.6857C14.2629 42.7029 15.4243 42.72 16.125 43.0114C16.8879 43.3264 17.76 44.1621 18.6043 44.97C20.0829 46.3907 21.7629 48 24 48C26.2371 48 27.915 46.3907 29.3957 44.97C30.24 44.1621 31.11 43.3264 31.875 43.0114C32.5757 42.72 33.7371 42.7029 34.8621 42.6857C36.9536 42.6536 39.3236 42.6193 40.9714 40.9714C42.6193 39.3236 42.6536 36.9536 42.6857 34.8621C42.7029 33.7371 42.72 32.5757 43.0114 31.875C43.3264 31.1121 44.1621 30.24 44.97 29.3957C46.3907 27.9171 48 26.2371 48 24C48 21.7629 46.3907 20.085 44.97 18.6043ZM33.7843 20.07L21.7843 32.07C21.6251 32.2294 21.436 32.3558 21.2279 32.4421C21.0198 32.5284 20.7967 32.5728 20.5714 32.5728C20.3461 32.5728 20.1231 32.5284 19.915 32.4421C19.7068 32.3558 19.5178 32.2294 19.3586 32.07L14.2157 26.9271C13.894 26.6055 13.7133 26.1692 13.7133 25.7143C13.7133 25.2594 13.894 24.8231 14.2157 24.5014C14.5374 24.1798 14.9737 23.999 15.4286 23.999C15.8835 23.999 16.3198 24.1798 16.6414 24.5014L20.5714 28.4336L31.3586 17.6443C31.5178 17.485 31.7069 17.3587 31.915 17.2725C32.1231 17.1863 32.3462 17.1419 32.5714 17.1419C32.7967 17.1419 33.0197 17.1863 33.2278 17.2725C33.4359 17.3587 33.625 17.485 33.7843 17.6443C33.9436 17.8036 34.0699 17.9926 34.1561 18.2007C34.2423 18.4089 34.2867 18.6319 34.2867 18.8571C34.2867 19.0824 34.2423 19.3054 34.1561 19.5135C34.0699 19.7216 33.9436 19.9107 33.7843 20.07Z" fill="#10B981"/>
</svg>
