<svg width="32" height="32" viewBox="0 0 32 32" fill="none" xmlns="http://www.w3.org/2000/svg">
<g clip-path="url(#clip0_324_264)">
<path d="M28 14.9991V26.9991C28 27.2643 27.8946 27.5186 27.7071 27.7062C27.5196 27.8937 27.2652 27.9991 27 27.9991H20C19.7348 27.9991 19.4804 27.8937 19.2929 27.7062C19.1054 27.5186 19 27.2643 19 26.9991V20.4991C19 20.3665 18.9473 20.2393 18.8536 20.1455C18.7598 20.0518 18.6326 19.9991 18.5 19.9991H13.5C13.3674 19.9991 13.2402 20.0518 13.1464 20.1455C13.0527 20.2393 13 20.3665 13 20.4991V26.9991C13 27.2643 12.8946 27.5186 12.7071 27.7062C12.5196 27.8937 12.2652 27.9991 12 27.9991H5C4.73478 27.9991 4.48043 27.8937 4.29289 27.7062C4.10536 27.5186 4 27.2643 4 26.9991V14.9991C4.00025 14.4687 4.21112 13.9602 4.58625 13.5853L14.5863 3.58532C14.9613 3.21053 15.4698 3 16 3C16.5302 3 17.0387 3.21053 17.4137 3.58532L27.4137 13.5853C27.7889 13.9602 27.9998 14.4687 28 14.9991Z" fill="#15171C"/>
</g>
<defs>
<clipPath id="clip0_324_264">
<rect width="32" height="32" fill="white"/>
</clipPath>
</defs>
</svg>
