<svg width="32" height="33" viewBox="0 0 32 33" fill="none" xmlns="http://www.w3.org/2000/svg">
<g clip-path="url(#clip0_324_76)">
<path d="M13 27.075V19.075H19V27.075H27V15.075C27.0001 14.9436 26.9743 14.8136 26.9241 14.6922C26.8739 14.5708 26.8003 14.4604 26.7075 14.3675L16.7075 4.36751C16.6146 4.27453 16.5043 4.20077 16.3829 4.15045C16.2615 4.10012 16.1314 4.07422 16 4.07422C15.8686 4.07422 15.7385 4.10012 15.6171 4.15045C15.4957 4.20077 15.3854 4.27453 15.2925 4.36751L5.2925 14.3675C5.19967 14.4604 5.12605 14.5708 5.07586 14.6922C5.02568 14.8136 4.9999 14.9436 5 15.075V27.075H13Z" stroke="#9CA3AF" stroke-width="2" stroke-linecap="round" stroke-linejoin="round"/>
</g>
<defs>
<clipPath id="clip0_324_76">
<rect width="32" height="32" fill="white" transform="translate(0 0.0742188)"/>
</clipPath>
</defs>
</svg>
