<svg width="20" height="20" viewBox="0 0 20 20" fill="none" xmlns="http://www.w3.org/2000/svg">
<g clip-path="url(#clip0_171_3915)">
<path fill-rule="evenodd" clip-rule="evenodd" d="M6.70833 10.166C6.70833 9.78634 7.01615 9.47853 7.39583 9.47853H17.454L15.6568 7.93801C15.3685 7.69092 15.3351 7.2569 15.5822 6.96861C15.8293 6.68032 16.2633 6.64694 16.5516 6.89404L19.7599 9.64408C19.9123 9.77461 20 9.96537 20 10.166C20 10.3667 19.9123 10.5574 19.7599 10.688L16.5516 13.438C16.2633 13.6851 15.8293 13.6517 15.5822 13.3635C15.3351 13.0752 15.3685 12.6411 15.6568 12.3941L17.454 10.8535H7.39583C7.01615 10.8535 6.70833 10.5457 6.70833 10.166Z" fill="#1364FF"/>
<path d="M12.895 6.5C12.895 7.14367 12.895 7.46552 12.7406 7.69671C12.6737 7.79682 12.5877 7.88277 12.4876 7.94966C12.2564 8.10413 11.9345 8.10413 11.2909 8.10413H7.39502C6.25597 8.10413 5.33252 9.02752 5.33252 10.1667C5.33252 11.3057 6.25597 12.2292 7.39502 12.2292H11.2909C11.9345 12.2292 12.2565 12.2292 12.4877 12.3836C12.5877 12.4505 12.6736 12.5364 12.7405 12.6365C12.895 12.8677 12.895 13.1896 12.895 13.8333C12.895 16.426 12.895 17.7224 12.0895 18.5279C11.2841 19.3333 9.9879 19.3333 7.3952 19.3333H6.47854C3.88584 19.3333 2.58949 19.3333 1.78401 18.5279C0.978537 17.7224 0.978537 16.426 0.978537 13.8333V6.5C0.978537 3.90728 0.978537 2.61091 1.78401 1.80546C2.58949 1 3.88584 1 6.47854 1H7.3952C9.9879 1 11.2841 1 12.0895 1.80546C12.895 2.61091 12.895 3.90727 12.895 6.5Z" fill="#1364FF"/>
</g>
<defs>
<clipPath id="clip0_171_3915">
<rect width="20" height="20" fill="white"/>
</clipPath>
</defs>
</svg>
