<svg width="32" height="33" viewBox="0 0 32 33" fill="none" xmlns="http://www.w3.org/2000/svg">
<g clip-path="url(#clip0_324_62)">
<path d="M27.725 22.0667C27.0313 20.8717 26 17.4905 26 13.0742C26 10.4221 24.9464 7.87851 23.0711 6.00315C21.1957 4.12779 18.6522 3.07422 16 3.07422C13.3479 3.07422 10.8043 4.12779 8.92895 6.00315C7.05358 7.87851 6.00002 10.4221 6.00002 13.0742C6.00002 17.4917 4.96752 20.8717 4.27377 22.0667C4.0966 22.3705 4.00268 22.7157 4.00148 23.0674C4.00027 23.419 4.09182 23.7648 4.26689 24.0698C4.44196 24.3748 4.69437 24.6283 4.99865 24.8046C5.30293 24.981 5.64833 25.074 6.00002 25.0742H11.1013C11.332 26.2032 11.9455 27.2178 12.8382 27.9464C13.7308 28.6751 14.8477 29.0731 16 29.0731C17.1523 29.0731 18.2692 28.6751 19.1618 27.9464C20.0545 27.2178 20.6681 26.2032 20.8988 25.0742H26C26.3516 25.0737 26.6968 24.9806 27.0009 24.8042C27.3051 24.6277 27.5573 24.3743 27.7322 24.0693C27.9071 23.7643 27.9986 23.4186 27.9973 23.067C27.996 22.7155 27.9021 22.3704 27.725 22.0667ZM16 27.0742C15.3798 27.074 14.7749 26.8816 14.2685 26.5234C13.7622 26.1653 13.3793 25.659 13.1725 25.0742H18.8275C18.6208 25.659 18.2379 26.1653 17.7315 26.5234C17.2252 26.8816 16.6202 27.074 16 27.0742Z" fill="#15171C"/>
</g>
<defs>
<clipPath id="clip0_324_62">
<rect width="32" height="32" fill="white" transform="translate(0 0.0742188)"/>
</clipPath>
</defs>
</svg>
