<svg width="24" height="24" viewBox="0 0 24 24" fill="none" xmlns="http://www.w3.org/2000/svg">
<g clip-path="url(#clip0_171_5221)">
<path d="M12 22C17.5228 22 22 17.5228 22 12C22 6.47715 17.5228 2 12 2C6.47715 2 2 6.47715 2 12C2 17.5228 6.47715 22 12 22Z" fill="#F87171"/>
<path d="M15.7097 7.58328L16.401 8.27465C16.6396 8.51325 16.6396 8.90012 16.401 9.13876L9.14356 16.3961C8.90497 16.6348 8.51809 16.6347 8.27945 16.3961L7.58813 15.7048C7.34953 15.4662 7.34953 15.0793 7.58813 14.8407L14.8455 7.58321C15.0842 7.34465 15.4711 7.34465 15.7097 7.58328Z" fill="white"/>
<path d="M16.401 15.7048L15.7097 16.3962C15.4711 16.6348 15.0842 16.6348 14.8455 16.3962L7.58813 9.13872C7.34953 8.90012 7.34953 8.51325 7.58813 8.27461L8.27949 7.58324C8.51809 7.34465 8.90497 7.34465 9.1436 7.58324L16.401 14.8407C16.6397 15.0793 16.6397 15.4662 16.401 15.7048Z" fill="white"/>
</g>
<defs>
<clipPath id="clip0_171_5221">
<rect width="24" height="24" fill="white"/>
</clipPath>
</defs>
</svg>
