<svg width="20" height="20" viewBox="0 0 20 20" fill="none" xmlns="http://www.w3.org/2000/svg">
<path d="M18.75 9.99183C18.7506 10.2145 18.6916 10.4334 18.5793 10.6257C18.4669 10.8179 18.3052 10.9767 18.1109 11.0856L4.9922 18.5864C4.80394 18.6931 4.5914 18.7496 4.37501 18.7504C4.17563 18.7493 3.97939 18.7006 3.80269 18.6082C3.62599 18.5159 3.47394 18.3826 3.35925 18.2195C3.24455 18.0564 3.17054 17.8682 3.14338 17.6707C3.11622 17.4732 3.13671 17.272 3.20314 17.084L5.31251 10.8379C5.33313 10.7769 5.37212 10.7237 5.42415 10.6856C5.47617 10.6476 5.53869 10.6265 5.60314 10.6254H11.25C11.3357 10.6256 11.4205 10.6082 11.4992 10.5742C11.5778 10.5402 11.6486 10.4905 11.7073 10.428C11.7659 10.3655 11.811 10.2916 11.8399 10.2109C11.8687 10.1303 11.8807 10.0445 11.875 9.95902C11.8608 9.7983 11.7865 9.64887 11.6668 9.54065C11.5472 9.43244 11.391 9.37342 11.2297 9.37542H5.6047C5.53932 9.37543 5.47558 9.35493 5.42247 9.31681C5.36935 9.27868 5.32953 9.22486 5.3086 9.16292L3.19923 2.91761C3.11527 2.67823 3.10613 2.41897 3.17303 2.17427C3.23993 1.92958 3.37969 1.71102 3.57376 1.54765C3.76782 1.38428 4.007 1.28381 4.25952 1.25961C4.51204 1.23541 4.76595 1.28861 4.98751 1.41214L18.1125 8.90355C18.3057 9.01214 18.4666 9.17016 18.5786 9.36139C18.6906 9.55262 18.7498 9.7702 18.75 9.99183Z" fill="white"/>
</svg>
