<svg width="16" height="16" viewBox="0 0 16 16" fill="none" xmlns="http://www.w3.org/2000/svg">
<path d="M13.9607 8.1127L13.964 8.11213L12.0472 9.82664L11.8276 10.0231L11.893 10.3103L12.8729 14.6125L12.8733 14.6142C12.9059 14.755 12.8974 14.9026 12.8493 15.0377L13.3204 15.2053L12.8493 15.0377C12.8013 15.1728 12.7167 15.2872 12.6091 15.3683C12.5017 15.4493 12.3756 15.4941 12.2469 15.4995C12.1184 15.5048 11.9899 15.4708 11.8775 15.3996C11.8773 15.3995 11.8771 15.3994 11.877 15.3993L8.26906 13.0976L8.00022 12.9261L7.73134 13.0975L4.12224 15.3987C4.12192 15.3988 4.12161 15.399 4.12129 15.3992C4.00896 15.4698 3.88087 15.5034 3.75277 15.4978C3.62429 15.4923 3.49846 15.4474 3.39125 15.3665L3.13773 15.7023L3.39125 15.3665C3.28382 15.2854 3.19943 15.1712 3.15144 15.0364C3.10341 14.9015 3.09481 14.7541 3.12715 14.6136L3.12731 14.6129L4.11074 10.3107L4.17646 10.0232L3.95666 9.82664L0.740796 6.95015C0.639342 6.85926 0.563772 6.7373 0.526231 6.5982C0.488664 6.45902 0.491526 6.31115 0.53432 6.17383C0.577081 6.03662 0.65707 5.9182 0.761573 5.83183C0.865431 5.746 0.989174 5.69525 1.11709 5.68325L5.33167 5.33078L5.63991 5.30501L5.75445 5.01767L7.38111 0.937015L7.38155 0.935924C7.43412 0.803145 7.52244 0.692461 7.63255 0.615928C7.74242 0.53956 7.86972 0.5 7.99836 0.5C8.12699 0.5 8.2543 0.53956 8.36417 0.615929C8.47427 0.692461 8.5626 0.803145 8.61516 0.935924L8.61557 0.936945L10.2415 5.0176L10.356 5.305L10.6643 5.33078L14.8791 5.68326C14.8794 5.68329 14.8797 5.68331 14.8799 5.68334C15.0084 5.69477 15.1327 5.74527 15.2371 5.83112C15.342 5.91735 15.4223 6.03579 15.4654 6.17316L15.9425 6.02372L15.4654 6.17317C15.5084 6.31064 15.5114 6.45877 15.4739 6.59821L15.9567 6.72827L15.4739 6.59821C15.4363 6.73757 15.3606 6.85974 15.259 6.95073L13.9607 8.1127Z" stroke="#F59E0B"/>
</svg>
