<svg width="32" height="33" viewBox="0 0 32 33" fill="none" xmlns="http://www.w3.org/2000/svg">
<g clip-path="url(#clip0_324_102)">
<path d="M27.96 8.3425L16.96 2.32375C16.6661 2.16136 16.3358 2.07617 16 2.07617C15.6642 2.07617 15.3339 2.16136 15.04 2.32375L4.04 8.345C3.72586 8.51688 3.46363 8.76995 3.28069 9.07778C3.09775 9.38561 3.00081 9.73692 3 10.095V22.05C3.00081 22.4081 3.09775 22.7594 3.28069 23.0672C3.46363 23.3751 3.72586 23.6281 4.04 23.8L15.04 29.8213C15.3339 29.9837 15.6642 30.0688 16 30.0688C16.3358 30.0688 16.6661 29.9837 16.96 29.8213L27.96 23.8C28.2741 23.6281 28.5364 23.3751 28.7193 23.0672C28.9023 22.7594 28.9992 22.4081 29 22.05V10.0963C28.9999 9.73753 28.9032 9.38545 28.7203 9.0769C28.5373 8.76835 28.2747 8.51469 27.96 8.3425ZM16 4.07375L26.0438 9.57375L22.3213 11.61L12.2775 6.11L16 4.07375ZM16 15.0738L5.95625 9.57375L10.195 7.2525L20.2388 12.7525L16 15.0738ZM27 22.055L17 27.5288V16.8025L21 14.6138V19.0738C21 19.339 21.1054 19.5933 21.2929 19.7809C21.4804 19.9684 21.7348 20.0738 22 20.0738C22.2652 20.0738 22.5196 19.9684 22.7071 19.7809C22.8946 19.5933 23 19.339 23 19.0738V13.5188L27 11.33V22.05V22.055Z" fill="#15171C"/>
</g>
<defs>
<clipPath id="clip0_324_102">
<rect width="32" height="32" fill="white" transform="translate(0 0.0742188)"/>
</clipPath>
</defs>
</svg>
