<svg width="40" height="40" viewBox="0 0 40 40" fill="none" xmlns="http://www.w3.org/2000/svg">
<circle cx="20" cy="20" r="20" fill="white"/>
<g clip-path="url(#clip0_171_370)">
<path d="M28.75 19.375H26.8461C26.698 17.7751 25.995 16.2774 24.8588 15.1412C23.7226 14.0051 22.2249 13.302 20.625 13.1539V11.25C20.625 11.0842 20.5592 10.9253 20.4419 10.8081C20.3247 10.6908 20.1658 10.625 20 10.625C19.8342 10.625 19.6753 10.6908 19.5581 10.8081C19.4408 10.9253 19.375 11.0842 19.375 11.25V13.1539C17.7751 13.302 16.2774 14.0051 15.1412 15.1412C14.0051 16.2774 13.302 17.7751 13.1539 19.375H11.25C11.0842 19.375 10.9253 19.4408 10.8081 19.5581C10.6908 19.6753 10.625 19.8342 10.625 20C10.625 20.1658 10.6908 20.3247 10.8081 20.4419C10.9253 20.5592 11.0842 20.625 11.25 20.625H13.1539C13.302 22.2249 14.0051 23.7226 15.1412 24.8588C16.2774 25.995 17.7751 26.698 19.375 26.8461V28.75C19.375 28.9158 19.4408 29.0747 19.5581 29.1919C19.6753 29.3092 19.8342 29.375 20 29.375C20.1658 29.375 20.3247 29.3092 20.4419 29.1919C20.5592 29.0747 20.625 28.9158 20.625 28.75V26.8461C22.2249 26.698 23.7226 25.995 24.8588 24.8588C25.995 23.7226 26.698 22.2249 26.8461 20.625H28.75C28.9158 20.625 29.0747 20.5592 29.1919 20.4419C29.3092 20.3247 29.375 20.1658 29.375 20C29.375 19.8342 29.3092 19.6753 29.1919 19.5581C29.0747 19.4408 28.9158 19.375 28.75 19.375ZM20 25.625C18.8875 25.625 17.7999 25.2951 16.8749 24.677C15.9499 24.0589 15.2289 23.1804 14.8032 22.1526C14.3774 21.1248 14.266 19.9938 14.4831 18.9026C14.7001 17.8115 15.2359 16.8092 16.0225 16.0225C16.8092 15.2359 17.8115 14.7001 18.9026 14.4831C19.9938 14.266 21.1248 14.3774 22.1526 14.8032C23.1804 15.2289 24.0589 15.9499 24.677 16.8749C25.2951 17.7999 25.625 18.8875 25.625 20C25.6233 21.4913 25.0302 22.9211 23.9756 23.9756C22.9211 25.0302 21.4913 25.6233 20 25.625ZM23.125 20C23.125 20.6181 22.9417 21.2223 22.5983 21.7362C22.255 22.2501 21.7669 22.6506 21.1959 22.8871C20.6249 23.1236 19.9965 23.1855 19.3903 23.065C18.7842 22.9444 18.2273 22.6467 17.7903 22.2097C17.3533 21.7727 17.0556 21.2158 16.935 20.6097C16.8145 20.0035 16.8764 19.3751 17.1129 18.8041C17.3494 18.2331 17.7499 17.745 18.2638 17.4017C18.7777 17.0583 19.3819 16.875 20 16.875C20.8288 16.875 21.6237 17.2042 22.2097 17.7903C22.7958 18.3763 23.125 19.1712 23.125 20Z" fill="#4B5563"/>
</g>
<defs>
<clipPath id="clip0_171_370">
<rect width="20" height="20" fill="white" transform="translate(10 10)"/>
</clipPath>
</defs>
</svg>
