<svg width="20" height="21" viewBox="0 0 20 21" fill="none" xmlns="http://www.w3.org/2000/svg">
<path d="M5.80781 6.6712C5.7497 6.61315 5.7036 6.54422 5.67215 6.46835C5.6407 6.39247 5.62451 6.31114 5.62451 6.22901C5.62451 6.14687 5.6407 6.06554 5.67215 5.98967C5.7036 5.9138 5.7497 5.84487 5.80781 5.78682L9.55781 2.03682C9.61586 1.97871 9.68479 1.93261 9.76066 1.90116C9.83654 1.8697 9.91787 1.85352 10 1.85352C10.0821 1.85352 10.1635 1.8697 10.2393 1.90116C10.3152 1.93261 10.3841 1.97871 10.4422 2.03682L14.1922 5.78682C14.3095 5.9041 14.3753 6.06315 14.3753 6.22901C14.3753 6.39486 14.3095 6.55392 14.1922 6.6712C14.0749 6.78847 13.9159 6.85435 13.75 6.85435C13.5841 6.85435 13.4251 6.78847 13.3078 6.6712L10.625 3.9876V10.604C10.625 10.7698 10.5592 10.9287 10.4419 11.0459C10.3247 11.1632 10.1658 11.229 10 11.229C9.83424 11.229 9.67527 11.1632 9.55806 11.0459C9.44085 10.9287 9.375 10.7698 9.375 10.604V3.9876L6.69219 6.6712C6.63414 6.72931 6.56521 6.7754 6.48934 6.80686C6.41346 6.83831 6.33213 6.8545 6.25 6.8545C6.16787 6.8545 6.08654 6.83831 6.01066 6.80686C5.93479 6.7754 5.86586 6.72931 5.80781 6.6712ZM18.75 11.229V16.229C18.75 16.5605 18.6183 16.8785 18.3839 17.1129C18.1495 17.3473 17.8315 17.479 17.5 17.479H2.5C2.16848 17.479 1.85054 17.3473 1.61612 17.1129C1.3817 16.8785 1.25 16.5605 1.25 16.229V11.229C1.25 10.8975 1.3817 10.5795 1.61612 10.3451C1.85054 10.1107 2.16848 9.97901 2.5 9.97901H7.8125C7.89538 9.97901 7.97487 10.0119 8.03347 10.0705C8.09208 10.1291 8.125 10.2086 8.125 10.2915V10.5618C8.125 11.6126 8.98438 12.4985 10.0359 12.479C10.527 12.4696 10.9947 12.2679 11.3386 11.9173C11.6825 11.5667 11.8751 11.0951 11.875 10.604V10.2915C11.875 10.2086 11.9079 10.1291 11.9665 10.0705C12.0251 10.0119 12.1046 9.97901 12.1875 9.97901H17.5C17.8315 9.97901 18.1495 10.1107 18.3839 10.3451C18.6183 10.5795 18.75 10.8975 18.75 11.229ZM15.625 13.729C15.625 13.5436 15.57 13.3623 15.467 13.2082C15.364 13.054 15.2176 12.9338 15.0463 12.8629C14.875 12.7919 14.6865 12.7733 14.5046 12.8095C14.3227 12.8457 14.1557 12.935 14.0246 13.0661C13.8935 13.1972 13.8042 13.3643 13.768 13.5461C13.7318 13.728 13.7504 13.9165 13.8214 14.0878C13.8923 14.2591 14.0125 14.4055 14.1667 14.5085C14.3208 14.6115 14.5021 14.6665 14.6875 14.6665C14.9361 14.6665 15.1746 14.5677 15.3504 14.3919C15.5262 14.2161 15.625 13.9776 15.625 13.729Z" fill="#6B7280"/>
</svg>
