<svg width="21" height="21" viewBox="0 0 21 21" fill="none" xmlns="http://www.w3.org/2000/svg">
<g clip-path="url(#clip0_171_3866)">
<path d="M17.9941 4.15039H2.99414C2.66262 4.15039 2.34468 4.28209 2.11026 4.51651C1.87584 4.75093 1.74414 5.06887 1.74414 5.40039V15.4004C1.74414 15.7319 1.87584 16.0499 2.11026 16.2843C2.34468 16.5187 2.66262 16.6504 2.99414 16.6504H17.9941C18.3257 16.6504 18.6436 16.5187 18.878 16.2843C19.1124 16.0499 19.2441 15.7319 19.2441 15.4004V5.40039C19.2441 5.06887 19.1124 4.75093 18.878 4.51651C18.6436 4.28209 18.3257 4.15039 17.9941 4.15039ZM11.1191 14.1504H9.86914C9.70338 14.1504 9.54441 14.0845 9.4272 13.9673C9.30999 13.8501 9.24414 13.6912 9.24414 13.5254C9.24414 13.3596 9.30999 13.2007 9.4272 13.0834C9.54441 12.9662 9.70338 12.9004 9.86914 12.9004H11.1191C11.2849 12.9004 11.4439 12.9662 11.5611 13.0834C11.6783 13.2007 11.7441 13.3596 11.7441 13.5254C11.7441 13.6912 11.6783 13.8501 11.5611 13.9673C11.4439 14.0845 11.2849 14.1504 11.1191 14.1504ZM16.1191 14.1504H13.6191C13.4534 14.1504 13.2944 14.0845 13.1772 13.9673C13.06 13.8501 12.9941 13.6912 12.9941 13.5254C12.9941 13.3596 13.06 13.2007 13.1772 13.0834C13.2944 12.9662 13.4534 12.9004 13.6191 12.9004H16.1191C16.2849 12.9004 16.4439 12.9662 16.5611 13.0834C16.6783 13.2007 16.7441 13.3596 16.7441 13.5254C16.7441 13.6912 16.6783 13.8501 16.5611 13.9673C16.4439 14.0845 16.2849 14.1504 16.1191 14.1504ZM2.99414 7.27539V5.40039H17.9941V7.27539H2.99414Z" fill="#1364FF"/>
</g>
<defs>
<clipPath id="clip0_171_3866">
<rect width="20" height="20" fill="white" transform="translate(0.494141 0.400391)"/>
</clipPath>
</defs>
</svg>
