<svg width="14" height="14" viewBox="0 0 14 14" fill="none" xmlns="http://www.w3.org/2000/svg">
<g clip-path="url(#clip0_171_3113)">
<path d="M12.25 1.75H11.5396C11.9886 2.52328 12.25 3.41824 12.25 4.375C12.25 7.26988 9.89488 9.625 7 9.625C4.10512 9.625 1.75 7.26988 1.75 4.375C1.75 3.41824 2.01141 2.52328 2.46039 1.75H1.75C0.785039 1.75 0 2.53504 0 3.5V12.25C0 13.215 0.785039 14 1.75 14H12.25C13.215 14 14 13.215 14 12.25V3.5C14 2.53504 13.215 1.75 12.25 1.75ZM7 8.75C9.41637 8.75 11.375 6.79137 11.375 4.375C11.375 1.95863 9.41637 0 7 0C4.58363 0 2.625 1.95863 2.625 4.375C2.625 6.79137 4.58363 8.75 7 8.75ZM6.9918 4.59539L7.91 2.45273C8.0057 2.22934 8.26383 2.1268 8.48504 2.22277C8.70707 2.31793 8.80988 2.57523 8.715 2.79699L7.79434 4.94484C7.97699 5.14062 8.09375 5.39902 8.09375 5.6875C8.09375 6.29152 7.60402 6.78125 7 6.78125C6.39598 6.78125 5.90625 6.29152 5.90625 5.6875C5.90625 5.08648 6.39187 4.60004 6.9918 4.59539Z" fill="#9CA3AF"/>
</g>
<defs>
<clipPath id="clip0_171_3113">
<rect width="14" height="14" fill="white"/>
</clipPath>
</defs>
</svg>
